<svg enable-background="new 0 0 584 149" version="1.1" viewBox="0 0 98.79 47.7" xmlns="http://www.w3.org/2000/svg">
 <title>Universidad Industrial de Santander logo</title>
 <g transform="matrix(.4589 0 0 .4589 -85.91 -169)">
  <path d="m193.6 369.6h91.14c2.785 0 5.063 2.278 5.063 5.064v91.14c0 2.785-2.278 5.063-5.063 5.063h-91.14c-2.785 0-5.064-2.278-5.064-5.063v-91.14c0-2.786 2.279-5.064 5.064-5.064z" style="fill:#67b83c;stroke-width:2.684;stroke:#67b83c"/>
  <path d="m305 369.6h91.14c2.785 0 5.063 2.278 5.063 5.064v91.14c0 2.785-2.278 5.063-5.063 5.063h-91.14c-2.785 0-5.063-2.278-5.063-5.063v-91.14c0-2.786 2.278-5.064 5.063-5.064z" style="fill:#fff;stroke-width:2.684;stroke:#67b83c"/>
  <path transform="matrix(2.179 0 0 2.179 185.6 295.1)" d="m75.71 40.54c-0.6837 0-1.367 0.04391-2.043 0.1348v33.43c1.351 0.1817 2.735 0.1817 4.086 0v-33.43c-0.6757-0.09086-1.359-0.1348-2.043-0.1348zm-3.037 0.3027c-1.44 0.2918-2.811 0.786-4.086 1.455v24.92h-0.9941v-24.35c-1.549 0.9618-2.929 2.192-4.086 3.627v21.79c1.157 1.435 2.537 2.665 4.086 3.627 1.552 0.9645 3.267 1.656 5.08 2.023zm6.074 0v18.55h5.08v7.822h-0.9941v-6.828h-4.086v13.55c1.813-0.3671 3.527-1.059 5.08-2.023 1.548-0.9623 2.931-2.192 4.088-3.627v-12.98h-5.082v-7.824h0.9941v6.83h4.088v-7.822c-2.321-2.88-5.535-4.915-9.168-5.65z" style="fill:#67b83c"/>
  <path transform="matrix(2.179 0 0 2.179 185.8 294.5)" d="m35.16 45.96c-0.05873 0-0.1069 0.0014-0.1445 0.0078-0.03717 0.0064-0.06793 0.01472-0.0918 0.02344-0.02478 0.0073-0.0416 0.0191-0.05078 0.03516-0.0087 0.01652-0.01172 0.03277-0.01172 0.04883v1.91c-0.1556-0.1634-0.313-0.2862-0.4727-0.3711-0.1597-0.08351-0.3355-0.125-0.5273-0.125-0.2317 0-0.4366 0.0431-0.6133 0.1289-0.1762 0.08764-0.3236 0.21-0.4434 0.3711-0.1184 0.1597-0.2085 0.354-0.2695 0.582-0.05965 0.2271-0.0918 0.4825-0.0918 0.7656 0 0.2382 0.02558 0.466 0.07422 0.6816 0.04864 0.2157 0.1245 0.4013 0.2305 0.5605 0.106 0.1597 0.2443 0.2872 0.4141 0.3809 0.1707 0.09361 0.3773 0.1406 0.6191 0.1406 0.2207 0 0.424-0.05117 0.6094-0.1562 0.1872-0.1046 0.3674-0.2513 0.5391-0.4395v0.4355c0 0.01835 6e-3 0.03564 0.01563 0.05078 0.01009 0.01331 0.02531 0.02644 0.04687 0.03516 0.02248 0.0073 0.04911 0.01448 0.08398 0.01953 0.03396 5e-3 0.07602 0.0078 0.127 0.0078 0.04864 0 0.09013-0.0028 0.125-0.0078 0.0335-5e-3 0.06092-0.01219 0.08203-0.01953 0.02019-0.0087 0.0362-0.02185 0.04492-0.03516 0.0087-0.01514 0.01172-0.03243 0.01172-0.05078v-4.865c0-0.01606-0.0042-0.03231-0.01563-0.04883-0.01101-0.01606-0.0283-0.02781-0.05078-0.03516-0.02111-0.0087-0.0513-0.01701-0.08984-0.02344-0.03854-0.0064-0.08936-0.0078-0.1504-0.0078zm7.512 0c-0.05873 0-0.1074 0.0014-0.1445 0.0078-0.03763 0.0064-0.06794 0.01472-0.0918 0.02344-0.02524 0.0073-0.04206 0.0191-0.05078 0.03516-0.0087 0.01652-0.01172 0.03277-0.01172 0.04883v1.91c-0.156-0.1634-0.3154-0.2862-0.4746-0.3711-0.1597-0.08351-0.3355-0.125-0.5273-0.125-0.2322 0-0.4342 0.0431-0.6113 0.1289-0.1757 0.08764-0.3236 0.21-0.4434 0.3711-0.1184 0.1597-0.2105 0.354-0.2715 0.582-0.06011 0.2271-0.08984 0.4825-0.08984 0.7656 0 0.2382 0.02408 0.466 0.07227 0.6816 0.0491 0.2157 0.1264 0.4013 0.2324 0.5605 0.106 0.1597 0.2443 0.2872 0.4141 0.3809 0.1702 0.09361 0.3754 0.1406 0.6172 0.1406 0.2207 0 0.4255-0.05117 0.6113-0.1562 0.1868-0.1046 0.3674-0.2513 0.5391-0.4395v0.4355c0 0.01835 0.0055 0.03564 0.01563 0.05078 0.01009 0.01331 0.02577 0.02644 0.04687 0.03516 0.02248 0.0073 0.04911 0.01448 0.08398 0.01953 0.0335 5e-3 0.07556 0.0078 0.127 0.0078 0.04864 0 0.09013-0.0028 0.125-0.0078 0.03396-5e-3 0.06046-0.01219 0.08203-0.01953 0.01973-0.0087 0.0362-0.02185 0.04492-0.03516 0.0087-0.01514 0.01172-0.03243 0.01172-0.05078v-4.865c0-0.01606-0.0046-0.03231-0.01563-0.04883-0.01147-0.01606-0.0283-0.02781-0.05078-0.03516-0.02111-0.0087-0.0513-0.01701-0.08984-0.02344-0.039-0.0064-0.08936-0.0078-0.1504-0.0078zm-25.58 0.2246c-0.1436 0-0.2417 0.02673-0.2949 0.07813-0.05369 0.05094-0.08008 0.1467-0.08008 0.2871 0 0.14 0.02581 0.2332 0.07813 0.2832 0.05231 0.05002 0.1488 0.07422 0.291 0.07422 0.1432 0 0.2412-0.02478 0.2949-0.07617 0.05323-0.05093 0.08008-0.1468 0.08008-0.2891 0-0.1381-0.02581-0.2317-0.07813-0.2812-0.05231-0.05002-0.1492-0.07617-0.291-0.07617zm14.15 0c-0.1436 0-0.2412 0.02673-0.2949 0.07813-0.05369 0.05094-0.08008 0.1467-0.08008 0.2871 0 0.14 0.02535 0.2332 0.07812 0.2832 0.05231 0.05002 0.1492 0.07422 0.291 0.07422 0.1436 0 0.2412-0.02478 0.2949-0.07617 0.05369-0.05093 0.08008-0.1468 0.08008-0.2891 0-0.1381-0.02581-0.2317-0.07813-0.2812-0.05231-0.05002-0.1492-0.07617-0.291-0.07617zm-22.8 0.09961c-0.06378 0-0.1138 0.0033-0.1523 0.0098-0.039 6e-3 -0.07184 0.01277-0.0957 0.02148-0.02478 0.0087-0.04114 0.01852-0.05078 0.0332-0.0101 0.01514-0.01562 0.03243-0.01562 0.05078v2.934c0 0.2891 0.04149 0.5455 0.125 0.7676 0.08214 0.2216 0.2003 0.4054 0.3535 0.5527 0.1533 0.1468 0.3384 0.2578 0.5527 0.334 0.2143 0.07434 0.4523 0.1133 0.7129 0.1133 0.284 0 0.5373-0.04171 0.7617-0.1211 0.2244-0.0803 0.4143-0.198 0.5703-0.3535 0.1556-0.156 0.2759-0.3465 0.3594-0.5723 0.08443-0.2244 0.127-0.4812 0.127-0.7676v-2.887c0-0.01835-0.0066-0.03564-0.01758-0.05078-0.01009-0.01468-0.02692-0.02448-0.05078-0.0332-0.02203-0.0087-0.05578-0.01552-0.0957-0.02148-0.03992-0.0064-0.0897-0.0098-0.1484-0.0098-0.05965 0-0.1105 0.0033-0.1504 0.0098-0.03992 6e-3 -0.07242 0.01277-0.09766 0.02148-0.0234 0.0087-0.04115 0.01852-0.05078 0.0332-0.01009 0.01514-0.01367 0.03243-0.01367 0.05078v2.891c0 0.2106-0.02581 0.3964-0.07813 0.5547-0.05231 0.1583-0.1279 0.2896-0.2266 0.3965-0.0982 0.1074-0.2195 0.189-0.3613 0.2422-0.1422 0.05369-0.3066 0.08008-0.4883 0.08008-0.1785 0-0.3368-0.02743-0.4805-0.08203-0.1422-0.05509-0.2643-0.1354-0.3652-0.2442-0.1023-0.1083-0.1787-0.2448-0.2324-0.4082-0.05231-0.1634-0.08008-0.3529-0.08008-0.5723v-2.857c0-0.01835-0.00404-0.03564-0.01367-0.05078-0.00872-0.01468-0.0268-0.02448-0.04883-0.0332-0.02386-0.0087-0.05636-0.01552-0.09766-0.02148-0.0413-0.0064-0.09166-0.0098-0.1504-0.0098zm6.076 1.205c-0.1872 0-0.3716 0.04863-0.5547 0.1445-0.1845 0.0959-0.3702 0.2486-0.5547 0.4551v-0.4355c0-0.01973-0.0039-0.03701-0.01172-0.05078-0.0087-0.01239-0.02415-0.02414-0.04297-0.03516-0.02019-0.01101-0.04716-0.01781-0.08203-0.02148-0.03533-0.0037-0.07912-0.0059-0.1328-0.0059-0.05598 0-0.1013 0.0022-0.1348 0.0059-0.03487 0.0037-0.0615 0.01047-0.08398 0.02148-0.02111 0.01101-0.03758 0.02277-0.04492 0.03516-0.0073 0.01377-0.01172 0.03105-0.01172 0.05078v3.287c0 0.01835 0.0069 0.03644 0.01563 0.04883 0.0073 0.01377 0.02301 0.02552 0.04687 0.03516 0.02203 0.01009 0.05325 0.01644 0.0918 0.02148 0.03992 5e-3 0.08913 0.0078 0.1465 0.0078 0.06057 0 0.1105-0.0028 0.1504-0.0078 0.03854-5e-3 0.06736-0.01139 0.08984-0.02148 0.02111-0.0096 0.03919-0.02139 0.04883-0.03516 0.01009-0.01239 0.01367-0.03047 0.01367-0.04883v-2.297c0.1643-0.207 0.3247-0.3653 0.4766-0.4727 0.151-0.1069 0.3002-0.1602 0.4512-0.1602 0.117 0 0.22 0.02281 0.3086 0.06641 0.08994 0.04359 0.1608 0.1069 0.2168 0.1895 0.05598 0.08351 0.1005 0.1822 0.1289 0.2969 0.02983 0.1133 0.04297 0.263 0.04297 0.4512v1.926c0 0.01835 0.0055 0.03644 0.01563 0.04883 0.01009 0.01377 0.02577 0.02552 0.04687 0.03516 0.02248 0.01009 0.0513 0.01644 0.08984 0.02148 0.04038 5e-3 0.09131 0.0078 0.1523 0.0078 0.05736 0 0.1046-0.0028 0.1445-0.0078 0.03854-5e-3 0.06977-0.01139 0.0918-0.02148 0.02248-0.0096 0.03724-0.02139 0.04688-0.03516 0.01009-0.01239 0.01562-0.03047 0.01562-0.04883v-2.006c0-0.2331-0.01925-0.4345-0.06055-0.6016-0.03992-0.1657-0.107-0.3112-0.1992-0.4355-0.09223-0.1234-0.2137-0.223-0.3633-0.2969-0.1496-0.0748-0.3353-0.1113-0.5547-0.1113zm8.654 0c-0.2409 0-0.4578 0.04149-0.6523 0.125-0.1955 0.08489-0.3608 0.2044-0.498 0.3613-0.1381 0.1569-0.243 0.3498-0.3164 0.5742-0.0725 0.2258-0.1113 0.48-0.1113 0.7617 0 0.2964 0.03721 0.5569 0.1074 0.7812 0.07112 0.2244 0.1744 0.4104 0.3125 0.5586 0.1395 0.1482 0.3104 0.2598 0.5137 0.3359 0.2033 0.07434 0.4407 0.1133 0.7109 0.1133 0.156 0 0.3023-0.01267 0.4395-0.03516 0.1372-0.02386 0.2587-0.04968 0.3633-0.07813 0.1046-0.02983 0.1916-0.06002 0.2559-0.08984 0.06654-0.02983 0.1054-0.05264 0.1191-0.06641 0.01285-0.01239 0.02448-0.02771 0.0332-0.04102 0.0087-0.01514 0.01391-0.03001 0.01758-0.04883 0.0037-0.01881 7e-3 -0.0391 0.0098-0.0625 0.0023-0.02248 0.0039-0.04991 0.0039-0.08203 0-0.04359-0.0031-0.0815-0.0059-0.1113-0.0037-0.03028-0.01024-0.05288-0.01758-0.07031-0.0073-0.01744-0.01748-0.03034-0.03125-0.03906-0.01239-0.0087-0.0284-0.01367-0.04492-0.01367-0.02983 0-0.07155 0.01291-0.1289 0.03906-0.05736 0.02478-0.1306 0.05427-0.2188 0.08594-0.08856 0.03212-0.1953 0.06116-0.3164 0.08594-0.1216 0.02616-0.26 0.03711-0.416 0.03711-0.1982 0-0.3648-0.02559-0.502-0.08203-0.1358-0.05598-0.2456-0.1371-0.3301-0.2422-0.08627-0.1046-0.1469-0.2291-0.1836-0.375-0.03579-0.1473-0.05469-0.3111-0.05469-0.4941h2.154c0.06057 0 0.1148-0.02108 0.1621-0.06055 0.04726-0.03992 0.07227-0.1086 0.07227-0.2031v-0.1094c0-0.2143-0.02892-0.414-0.08398-0.6035-0.05461-0.1881-0.1388-0.3546-0.2559-0.4941-0.1175-0.1395-0.2665-0.2499-0.4473-0.332-0.1817-0.08397-0.4023-0.125-0.6602-0.125zm3.805 0c-0.06975 0-0.1388 0.0099-0.209 0.02734-0.06929 0.01835-0.1392 0.05039-0.209 0.09766-0.07112 0.04726-0.1467 0.1127-0.2266 0.1953-0.07847 0.08214-0.162 0.1906-0.252 0.3223v-0.4785c0-0.01973-0.0063-0.03701-0.01367-0.05078-0.0087-0.01239-0.0237-0.02414-0.04297-0.03516-0.01973-0.01101-0.04716-0.01781-0.08203-0.02148-0.03487-0.0037-0.07958-0.0059-0.1328-0.0059-0.05644 0-0.1008 0.0022-0.1348 0.0059-0.03487 0.0037-0.0615 0.01047-0.08398 0.02148-0.02111 0.01101-0.03712 0.02277-0.04492 0.03516-0.0069 0.01377-0.0098 0.03105-0.0098 0.05078v3.287c0 0.01835 5e-3 0.03644 0.01367 0.04883 0.0073 0.01377 0.02301 0.02552 0.04687 0.03516 0.02203 0.01009 0.05325 0.01644 0.0918 0.02148 0.03992 5e-3 0.08913 0.0078 0.1465 0.0078 0.06103 0 0.1105-0.0028 0.1504-0.0078 0.03854-5e-3 0.06931-0.01139 0.0918-0.02148 0.02111-0.0096 0.03678-0.02139 0.04687-0.03516 0.01009-0.01239 0.01563-0.03047 0.01563-0.04883v-2.162c0.08489-0.1335 0.1627-0.2476 0.2324-0.3398 0.07067-0.09223 0.1384-0.1667 0.2031-0.2227 0.06378-0.05644 0.1268-0.09528 0.1855-0.1191 0.05874-0.02524 0.1167-0.03906 0.1777-0.03906 0.05093 0 0.09807 0.0055 0.1426 0.01563 0.04359 0.01009 0.08335 0.01978 0.1191 0.03125 0.03533 0.01101 0.0653 0.02219 0.09375 0.0332 0.02753 0.01147 0.05058 0.01563 0.07031 0.01563 0.02019 0 0.03586-0.0042 0.04687-0.01563 0.01009-0.01101 0.02-0.02772 0.02734-0.04883 0.0064-0.02019 0.01138-0.04877 0.01367-0.08594 0.0023-0.03625 0.0039-0.08108 0.0039-0.1348 0-0.05598-5.76e-4 -0.1007-2e-3 -0.1328-0.0014-0.03258-0.0022-0.05678-0.0059-0.07422s-0.0091-0.0315-0.01367-0.04297c-5e-3 -0.01101-0.01461-0.02277-0.0293-0.03516-0.01377-0.01101-0.03843-0.02231-0.07422-0.03516-0.03487-0.01239-0.07555-0.02311-0.1191-0.0332s-0.08508-0.0154-0.125-0.01953c-0.03992-0.0037-0.07725-0.0059-0.1094-0.0059zm2.053 0c-0.1996 0-0.3758 0.02685-0.5254 0.08008-0.1496 0.05369-0.2735 0.1243-0.373 0.2129-0.09957 0.08856-0.1746 0.1922-0.2246 0.3105-0.04956 0.1184-0.07422 0.2426-0.07422 0.3711 0 0.1473 0.02305 0.2704 0.07031 0.375 0.04726 0.1051 0.111 0.1953 0.1895 0.2715 0.07755 0.07571 0.1655 0.1391 0.2637 0.1914 0.09866 0.05231 0.1995 0.09841 0.3027 0.1406 0.1037 0.0413 0.2035 0.08197 0.3008 0.1191 0.09774 0.03763 0.1847 0.08027 0.2637 0.1289 0.07709 0.04818 0.1402 0.1046 0.1875 0.168 0.04726 0.06241 0.07227 0.1421 0.07227 0.2344 0 0.08994-0.01728 0.1683-0.05078 0.2344-0.03258 0.0647-0.07902 0.1199-0.1387 0.1621-0.06103 0.04222-0.1347 0.07517-0.2168 0.09766-0.08351 0.02111-0.175 0.03125-0.2773 0.03125-0.1358 0-0.2567-0.01533-0.3613-0.04883-0.1046-0.03258-0.1953-0.06888-0.2715-0.1074-0.07709-0.03854-0.141-0.0753-0.1934-0.1074-0.05231-0.03396-0.09161-0.05078-0.1191-0.05078-0.01606 0-0.03253 5e-3 -0.04492 0.01367-0.01377 0.0087-0.02391 0.02278-0.03125 0.04297-0.0078 0.01973-0.01448 0.04302-0.01953 0.07422-5e-3 0.03258-0.0078 0.07084-0.0078 0.1172 0 0.07571 0.0071 0.1361 0.01953 0.1797 0.01285 0.04359 0.03106 0.07678 0.05859 0.1016 0.02616 0.02386 0.06959 0.05278 0.127 0.08398 0.05828 0.02983 0.1304 0.05841 0.2148 0.08594 0.08351 0.02753 0.1772 0.05196 0.2832 0.07031 0.106 0.01744 0.2183 0.02734 0.334 0.02734 0.1909 0 0.3656-0.02247 0.5234-0.06836 0.1588-0.04635 0.2944-0.1151 0.4082-0.2051 0.1147-0.08994 0.2037-0.2018 0.2656-0.334 0.06241-0.1308 0.09375-0.2789 0.09375-0.4473 0-0.1409-0.025-0.2629-0.07227-0.3652-0.04772-0.1023-0.11-0.1903-0.1875-0.2637-0.07847-0.07342-0.1686-0.1342-0.2695-0.1855-0.101-0.05094-0.2029-0.09795-0.3066-0.1406-0.1032-0.0413-0.2033-0.0806-0.3047-0.1191-0.09958-0.03992-0.1885-0.08417-0.2656-0.1328-0.07847-0.04864-0.1432-0.1033-0.1914-0.168-0.0491-0.0647-0.07227-0.1452-0.07227-0.2402 0-0.06837 0.01383-0.1307 0.03906-0.1895 0.0257-0.05828 0.06326-0.1101 0.1133-0.1523 0.04956-0.04222 0.1143-0.07425 0.1914-0.09766 0.07847-0.02386 0.1672-0.03516 0.2695-0.03516 0.1147 0 0.2161 0.01337 0.3047 0.03906 0.08994 0.02753 0.1663 0.05761 0.2324 0.08789 0.0647 0.0312 0.1189 0.05783 0.1602 0.08398 0.04222 0.02753 0.07322 0.04102 0.0957 0.04102 0.01377 0 0.02817-3e-3 0.04102-0.01172 0.01239-0.0087 0.02253-0.02324 0.03125-0.04297 0.0087-0.01881 0.01391-0.04347 0.01758-0.07422 0.0037-0.02983 0.0059-0.06658 0.0059-0.1074 0-0.03854-0.0022-0.07345-0.0059-0.09961-0.0037-0.02753-8e-3 -0.04851-0.01172-0.06641-0.0037-0.01835-0.0089-0.03564-0.01758-0.05078-0.0087-0.01468-0.026-0.03105-0.05078-0.05078-0.02616-0.02019-0.06476-0.04163-0.1152-0.06641-0.04956-0.02616-0.1086-0.05116-0.1797-0.07227-0.07112-0.02248-0.1491-0.04092-0.2363-0.05469-0.08856-0.01514-0.1765-0.02148-0.2637-0.02148zm8.736 0c-0.1271 0-0.2535 0.0113-0.377 0.03516-0.1244 0.0234-0.2406 0.05106-0.3457 0.08594-0.1046 0.03625-0.196 0.07497-0.2754 0.1172-0.08122 0.04268-0.1373 0.08013-0.1699 0.1113-0.0335 0.03258-0.05378 0.06669-0.0625 0.1016-0.0087 0.03487-0.01367 0.0835-0.01367 0.1445 0 0.03625 0.0028 0.06978 0.0078 0.09961 0.0046 0.03166 0.0138 0.05586 0.02344 0.07422 0.01147 0.02019 0.02438 0.03483 0.03906 0.04492 0.01514 0.0092 0.03197 0.01367 0.05078 0.01367 0.02983 0 0.07316-0.01786 0.1328-0.05273 0.06011-0.03625 0.1332-0.07497 0.2227-0.1172 0.08902-0.04222 0.1941-0.0814 0.3125-0.1172 0.1184-0.03533 0.2488-0.05273 0.3984-0.05273 0.1381 0 0.257 0.01625 0.3516 0.04883 0.09499 0.03396 0.1723 0.08328 0.2324 0.1484 0.05965 0.06378 0.1014 0.1449 0.1289 0.2422 0.02616 0.09728 0.03906 0.2088 0.03906 0.3359v0.2559h-0.4512c-0.2556 0-0.4868 0.02144-0.6914 0.06641s-0.3767 0.1123-0.5176 0.2031c-0.1409 0.08994-0.25 0.204-0.3262 0.3398-0.0748 0.1372-0.1113 0.2966-0.1113 0.4824 0 0.1583 0.02639 0.2995 0.08008 0.4238 0.05506 0.1234 0.1318 0.2282 0.2305 0.3145 0.0982 0.08489 0.2175 0.1488 0.3574 0.1934 0.139 0.04635 0.2977 0.06836 0.4707 0.06836 0.1969 0 0.3828-0.04402 0.5586-0.1289 0.1771-0.08489 0.3379-0.2042 0.4824-0.3574v0.3301c0 0.02891 6e-3 0.05069 0.02344 0.06445 0.01744 0.01468 0.04682 0.02586 0.08398 0.0332 0.03763 0.0073 0.08707 0.01172 0.1504 0.01172 0.06516 0 0.1151-0.0044 0.1504-0.01172 0.0335-0.0073 0.06126-0.01852 0.08008-0.0332 0.02019-0.01377 0.0293-0.03554 0.0293-0.06445v-2.219c0-0.2042-0.02397-0.3819-0.07031-0.5352-0.04589-0.1533-0.1203-0.2811-0.2227-0.3848-0.1019-0.1032-0.2347-0.1826-0.4004-0.2363-0.1661-0.05323-0.3662-0.08008-0.6016-0.08008zm-20.67 0.05078c-0.05736 0-0.1051 0.0032-0.1445 0.0078-0.039 5e-3 -0.07127 0.01185-0.09375 0.02148-0.0234 0.0087-0.03953 0.02242-0.04687 0.03711-0.0087 0.01514-0.01367 0.02944-0.01367 0.04687v3.287c0 0.01835 5e-3 0.03644 0.01367 0.04883 0.0073 0.01377 0.02347 0.02552 0.04687 0.03516 0.02248 0.01009 0.05475 0.01644 0.09375 0.02148 0.03946 5e-3 0.08717 0.0078 0.1445 0.0078 0.06149 0 0.1124-0.0028 0.1523-0.0078 0.03855-5e-3 0.06736-0.01139 0.08984-0.02148 0.02111-0.0096 0.03724-0.02139 0.04687-0.03516 0.0101-0.01239 0.01563-0.03047 0.01563-0.04883v-3.287c0-0.01744-0.0055-0.03173-0.01563-0.04687-0.0096-0.01468-0.02577-0.02839-0.04687-0.03711-0.02248-0.0096-0.0513-0.01644-0.08984-0.02148-0.03992-0.0046-0.09086-0.0078-0.1523-0.0078zm1.279 0c-0.05598 0-0.103 0.0016-0.1406 0.0039-0.03717 0.0028-0.06931 0.0069-0.0918 0.01563-0.02386 0.0087-0.03873 0.02001-0.04883 0.03516-0.0087 0.01468-0.01367 0.03197-0.01367 0.05078 0 0.0073-0.0014 0.01587 0 0.02734 0.0014 0.01101 0.0058 0.0283 0.01172 0.05078 0.0064 0.02111 0.01334 0.04772 0.02344 0.07617l1.117 3.121c0.0096 0.02478 0.02312 0.04506 0.04102 0.0625 0.01606 0.01744 0.03911 0.03138 0.07031 0.04102 0.02983 0.01009 0.07004 0.01644 0.1191 0.02148 0.04818 5e-3 0.1096 0.0078 0.1816 0.0078 0.07342 0 0.135-0.0022 0.1836-0.0059s0.08851-0.0099 0.1211-0.01953c0.0312-0.01009 0.05621-0.02404 0.07227-0.04102 0.01468-0.01744 0.02701-0.03933 0.03711-0.06641l1.121-3.121c5e-3 -0.01606 8e-3 -0.03368 0.01172-0.04883 0.0041-0.01514 0.0084-0.02667 0.0098-0.03906 0.0023-0.01239 0.0045-0.02369 0.0059-0.03516 9.18e-4 -0.01101 2e-3 -0.02116 2e-3 -0.03125 0-0.01881-0.0054-0.03644-0.01367-0.04883-0.0092-0.01377-0.02186-0.02506-0.04297-0.03516-0.02111-0.01009-0.05015-0.01483-0.08594-0.01758-0.03625-0.0023-0.08269-0.0039-0.1387-0.0039-0.06608 0-0.1189 0.0022-0.1602 0.0059-0.03992 0.0037-0.06989 0.0099-0.09375 0.01953-0.02248 0.0101-0.04126 0.02197-0.05273 0.03711-0.01239 0.01514-0.02034 0.0322-0.02539 0.05469l-0.918 2.709-0.0098 0.04492-0.01562-0.04492-0.9258-2.709c-0.01055-0.02248-0.02024-0.03955-0.03125-0.05469-0.01147-0.01514-0.02887-0.02701-0.05273-0.03711-0.02203-0.0096-0.05544-0.01586-0.09766-0.01953-0.04267-0.0037-0.0988-0.0059-0.1699-0.0059zm12.87 0c-0.05736 0-0.1066 0.0032-0.1465 0.0078-0.03854 5e-3 -0.06931 0.01185-0.0918 0.02148-0.02386 0.0087-0.03953 0.02242-0.04687 0.03711-0.0087 0.01514-0.01367 0.02944-0.01367 0.04687v3.287c0 0.01835 5e-3 0.03644 0.01367 0.04883 0.0073 0.01377 0.02301 0.02552 0.04687 0.03516 0.02248 0.01009 0.05325 0.01644 0.0918 0.02148 0.03992 5e-3 0.08913 0.0078 0.1465 0.0078 0.06103 0 0.1105-0.0028 0.1504-0.0078 0.03854-5e-3 0.06931-0.01139 0.0918-0.02148 0.02111-0.0096 0.03678-0.02139 0.04687-0.03516 0.01009-0.01239 0.01563-0.03047 0.01563-0.04883v-3.287c0-0.01744-0.0055-0.03173-0.01563-0.04687-0.01009-0.01468-0.02577-0.02839-0.04687-0.03711-0.02248-0.0096-0.05325-0.01644-0.0918-0.02148-0.03992-0.0046-0.08936-0.0078-0.1504-0.0078zm-8.09 0.4199c0.2891 0 0.5075 0.08874 0.6543 0.2695 0.1487 0.1794 0.2168 0.4295 0.209 0.7461h-1.781c5e-3 -0.1344 0.02901-0.2633 0.07031-0.3867 0.0413-0.1221 0.1001-0.23 0.1758-0.3223 0.0748-0.09223 0.1673-0.1661 0.2793-0.2207 0.1124-0.05644 0.243-0.08594 0.3926-0.08594zm10.77 0.04687c0.1661 0 0.3247 0.05462 0.4766 0.1602 0.1519 0.1065 0.3098 0.2586 0.4727 0.4609v1.314c-0.09453 0.1198-0.1851 0.2201-0.2695 0.3027-0.08489 0.08076-0.1685 0.1459-0.2461 0.1973-0.07847 0.05093-0.1527 0.08781-0.2266 0.1094-0.0748 0.02202-0.1532 0.03516-0.2344 0.03516-0.1569 0-0.288-0.03849-0.3926-0.1133-0.1046-0.07388-0.1882-0.1715-0.252-0.2949-0.06332-0.1234-0.108-0.2645-0.1328-0.4219-0.02616-0.1579-0.03906-0.3202-0.03906-0.4863 0-0.1556 0.01372-0.308 0.04492-0.459 0.02983-0.151 0.07903-0.2879 0.1465-0.4062 0.06699-0.1198 0.1548-0.2156 0.2617-0.2891 0.106-0.07204 0.2374-0.1094 0.3906-0.1094zm7.51 0c0.1657 0 0.3242 0.05462 0.4766 0.1602 0.1519 0.1065 0.3113 0.2586 0.4746 0.4609v1.314c-0.09499 0.1198-0.1871 0.2201-0.2715 0.3027-0.08489 0.08076-0.1671 0.1459-0.2441 0.1973-0.07847 0.05093-0.1551 0.08781-0.2285 0.1094-0.0748 0.02202-0.1512 0.03516-0.2324 0.03516-0.1569 0-0.2899-0.03849-0.3945-0.1133-0.1046-0.07388-0.1886-0.1715-0.252-0.2949-0.06378-0.1234-0.1076-0.2645-0.1328-0.4219-0.02616-0.1579-0.03906-0.3202-0.03906-0.4863 0-0.1556 0.01567-0.308 0.04687-0.459 0.02983-0.151 0.07949-0.2879 0.1465-0.4062 0.06745-0.1198 0.1543-0.2156 0.2617-0.2891 0.106-0.07204 0.2354-0.1094 0.3887-0.1094zm-3.479 1.436h0.5137v0.6973c-0.1482 0.1657-0.2894 0.2893-0.4238 0.3691-0.1358 0.08076-0.2831 0.1211-0.4414 0.1211-0.1946 0-0.3463-0.05139-0.4551-0.1523-0.1083-0.101-0.1621-0.237-0.1621-0.4082 0-0.09958 0.01901-0.1866 0.05664-0.2637 0.03717-0.07617 0.09789-0.1427 0.1777-0.1973 0.08122-0.05506 0.1821-0.0946 0.3027-0.123 0.1225-0.02753 0.266-0.04297 0.4316-0.04297zm-4.609 5.631c-0.05736 0-0.1046 0.0028-0.1445 0.0078-0.03854 5e-3 -0.07127 0.01277-0.09375 0.02148-0.02386 0.01009-0.03953 0.02197-0.04687 0.03711-0.0087 0.01377-0.01367 0.03105-0.01367 0.05078v4.879c0 0.01881 5e-3 0.03644 0.01367 0.04883 0.0073 0.01377 0.02301 0.02506 0.04687 0.03516 0.02248 0.01009 0.05521 0.01644 0.09375 0.02148 0.03992 5e-3 0.08717 0.0078 0.1445 0.0078 0.06103 0 0.1105-0.0028 0.1504-0.0078 0.039-5e-3 0.06931-0.01139 0.0918-0.02148 0.02111-0.01009 0.03678-0.02139 0.04687-0.03516 0.01009-0.01239 0.01563-0.03001 0.01563-0.04883v-4.879c0-0.01973-0.0055-0.03702-0.01563-0.05078-0.01009-0.01514-0.02577-0.02701-0.04687-0.03711-0.02249-0.0087-0.05279-0.01644-0.0918-0.02148-0.03992-5e-3 -0.08936-0.0078-0.1504-0.0078zm-18.9 0.01563c-0.05874 0-0.1069 0.0018-0.1445 0.0078-0.03717 0.0064-0.06839 0.01426-0.0918 0.02344-0.02524 0.0073-0.04206 0.0191-0.05078 0.03516-0.0087 0.01606-0.01172 0.03277-0.01172 0.04883v1.91c-0.156-0.1634-0.3149-0.2867-0.4746-0.3711-0.1592-0.08351-0.3351-0.125-0.5273-0.125-0.2317 0-0.4347 0.04264-0.6113 0.1289-0.1757 0.08718-0.3236 0.2105-0.4434 0.3711-0.1184 0.1597-0.21 0.354-0.2715 0.582-0.05965 0.2267-0.08984 0.4825-0.08984 0.7656 0 0.2382 0.02363 0.466 0.07227 0.6816 0.04864 0.2157 0.1264 0.4009 0.2324 0.5605 0.1055 0.1597 0.2447 0.2877 0.4141 0.3809 0.1707 0.09361 0.3758 0.1406 0.6172 0.1406 0.2212 0 0.4255-0.05163 0.6113-0.1562 0.1868-0.1046 0.367-0.2513 0.5391-0.4395v0.4355c0 0.01881 4e-3 0.0361 0.01367 0.05078 0.01009 0.01377 0.02772 0.02598 0.04883 0.03516 0.02248 0.0073 0.04957 0.01448 0.08399 0.01953 0.03396 5e-3 0.07556 0.0078 0.127 0.0078 0.04864 0 0.09013-0.0028 0.125-0.0078 0.0335-5e-3 0.06046-0.01219 0.08203-0.01953 0.01973-0.0092 0.0362-0.02139 0.04492-0.03516 0.0087-0.01468 0.01172-0.03197 0.01172-0.05078v-4.865c0-0.01606-0.0042-0.03277-0.01563-0.04883-0.01101-0.01606-0.0283-0.02781-0.05078-0.03516-0.02111-0.0092-0.0513-0.01701-0.08984-0.02344-0.039-6e-3 -0.08936-0.0078-0.1504-0.0078zm24.52 0c-0.05828 0-0.1069 0.0018-0.1445 0.0078-0.03717 0.0064-0.06794 0.01426-0.0918 0.02344-0.02478 0.0073-0.04206 0.0191-0.05078 0.03516-0.0087 0.01606-0.01172 0.03277-0.01172 0.04883v1.91c-0.156-0.1634-0.3149-0.2867-0.4746-0.3711-0.1597-0.08351-0.3355-0.125-0.5273-0.125-0.2322 0-0.4347 0.04264-0.6113 0.1289-0.1762 0.08718-0.3241 0.2105-0.4434 0.3711-0.1184 0.1597-0.2105 0.354-0.2715 0.582-0.05965 0.2267-0.08984 0.4825-0.08984 0.7656 0 0.2382 0.02363 0.466 0.07227 0.6816 0.04864 0.2157 0.1264 0.4009 0.2324 0.5605 0.106 0.1597 0.2447 0.2877 0.4141 0.3809 0.1707 0.09361 0.3758 0.1406 0.6172 0.1406 0.2207 0 0.4259-0.05163 0.6113-0.1562 0.1872-0.1046 0.367-0.2513 0.5391-0.4395v0.4355c0 0.01881 4e-3 0.0361 0.01367 0.05078 0.01009 0.01377 0.02726 0.02598 0.04883 0.03516 0.02248 0.0073 0.04957 0.01448 0.08398 0.01953 0.03396 5e-3 0.07556 0.0078 0.127 0.0078 0.04818 0 0.09013-0.0028 0.125-0.0078 0.0335-5e-3 0.06046-0.01219 0.08203-0.01953 0.01973-0.0092 0.03574-0.02139 0.04492-0.03516 0.0083-0.01468 0.01172-0.03197 0.01172-0.05078v-4.865c0-0.01606-0.0042-0.03277-0.01563-0.04883-0.01101-0.01606-0.02784-0.02781-0.05078-0.03516-0.02065-0.0092-0.05279-0.01701-0.0918-0.02344-0.03854-6e-3 -0.08695-0.0078-0.1484-0.0078zm-10.91 0.2246c-0.1432 0-0.2412 0.02673-0.2949 0.07813-0.05369 0.05094-0.08008 0.1462-0.08008 0.2871 0 0.1395 0.02731 0.2332 0.08008 0.2832 0.05231 0.04956 0.1473 0.07422 0.2891 0.07422 0.1436 0 0.2417-0.02524 0.2949-0.07617 0.05369-0.05093 0.08008-0.1473 0.08008-0.2891 0-0.1386-0.02581-0.2312-0.07813-0.2812-0.05231-0.05002-0.1492-0.07617-0.291-0.07617zm-21.54 0.09961c-0.05598 0-0.1046 0.0038-0.1445 0.0098-0.03992 0.0064-0.07104 0.01127-0.09766 0.01953-0.02478 0.0092-0.04368 0.02197-0.05469 0.03711-0.01101 0.01468-0.01562 0.03197-0.01562 0.05078v4.535c0 0.01881 0.00404 0.03564 0.01367 0.05078 0.00872 0.01514 0.026 0.02644 0.05078 0.03516 0.02386 0.0087 0.05831 0.01506 0.09961 0.02148 0.0413 6e-3 0.0897 0.0098 0.1484 0.0098 0.06103 0 0.1124-0.0038 0.1523-0.0098 0.04084-0.0064 0.07184-0.01277 0.0957-0.02148 0.02478-0.0087 0.04264-0.02001 0.05273-0.03516 0.0101-0.01514 0.01367-0.03197 0.01367-0.05078v-4.535c0-0.01881-0.00358-0.0361-0.01367-0.05078-0.0101-0.01514-0.02796-0.02793-0.05273-0.03711-0.02386-0.0083-0.05486-0.01311-0.0957-0.01953-0.03992-6e-3 -0.09131-0.0098-0.1523-0.0098zm16.57 0.375c-0.05874 0-0.1079 0.0032-0.1465 0.0078-0.03992 5e-3 -0.07081 0.01243-0.09375 0.02344-0.0234 0.01101-0.03816 0.02438-0.04687 0.03906-0.0087 0.01514-0.01172 0.02944-0.01172 0.04687v0.7832h-0.457c-0.01881 0-0.03667 3e-3 -0.05273 0.01172-0.01606 0.0087-0.02943 0.02278-0.03906 0.04297-0.01009 0.02111-0.01701 0.04692-0.02344 0.07813-6e-3 0.03212-0.0098 0.0713-0.0098 0.1172 0 0.08719 0.01072 0.1509 0.0332 0.1895 0.02248 0.03992 0.05164 0.05859 0.08789 0.05859h0.4609v1.922c0 0.1909 0.01786 0.3546 0.05273 0.4941 0.03487 0.1409 0.09237 0.2554 0.1699 0.3477 0.07847 0.09086 0.1781 0.1587 0.2988 0.2051 0.1225 0.04451 0.2663 0.06641 0.4375 0.06641 0.05598 0 0.112-2e-3 0.168-0.0098 0.05644-0.0073 0.1086-0.01633 0.1582-0.02734 0.05002-0.01101 0.09622-0.02553 0.1348-0.04297 0.03854-0.01652 0.06712-0.03496 0.08594-0.05469 0.02019-0.01881 0.03483-0.05096 0.04492-0.0918 0.0087-0.0413 0.01367-0.09684 0.01367-0.168 0-0.04359-0.0013-0.07955-0.0059-0.1094-0.0041-0.02891-0.01115-0.05092-0.01758-0.06836-6e-3 -0.01744-0.01197-0.02873-0.02344-0.03516-0.01147-6e-3 -0.02277-0.0078-0.03516-0.0078-0.02019 0-0.04163 0.0042-0.06641 0.01563-0.02386 0.01101-0.05439 0.02277-0.08789 0.03516-0.03396 0.01101-0.07359 0.02414-0.1172 0.03516-0.04359 0.0101-0.09246 0.01563-0.1484 0.01563-0.173 0-0.2939-0.05911-0.3613-0.1738-0.06608-0.1161-0.09961-0.287-0.09961-0.5137v-1.834h0.8438c0.03625 0 0.06541-0.01867 0.08789-0.05859 0.02248-0.03854 0.03125-0.1023 0.03125-0.1895 0-0.04589-0.0013-0.08507-0.0059-0.1172-0.0041-0.0312-0.01242-0.05702-0.02344-0.07813-0.0101-0.02019-0.0253-0.03425-0.03906-0.04297-0.01468-0.0087-0.03197-0.01172-0.05078-0.01172h-0.8438v-0.7832c0-0.01744-4e-3 -0.03173-0.01367-0.04687-0.01009-0.01468-0.02634-0.02805-0.04883-0.03906-0.02111-0.01101-0.0513-0.01839-0.08984-0.02344-0.03854-0.0046-0.08936-0.0078-0.1504-0.0078zm-13.42 0.8301c-0.1868 0-0.3736 0.04817-0.5566 0.1445-0.1845 0.0959-0.3678 0.2481-0.5527 0.4551v-0.4355c0-0.01973-0.00587-0.03702-0.01367-0.05078-0.00826-0.01239-0.0222-0.02369-0.04102-0.03516-0.01973-0.01101-0.04716-0.01781-0.08203-0.02148-0.03533-0.0037-0.08108-0.0059-0.1348-0.0059-0.05598 0-0.1013 0.0022-0.1348 0.0059-0.03487 0.0037-0.0615 0.01047-0.08398 0.02148-0.02111 0.01147-0.03517 0.02277-0.04297 0.03516-0.007342 0.01376-0.01172 0.03105-0.01172 0.05078v3.287c0 0.01881 0.00495 0.03644 0.01367 0.04883 0.0078 0.01377 0.02301 0.02506 0.04688 0.03516 0.02248 0.01009 0.05279 0.01644 0.0918 0.02148 0.03946 5e-3 0.08913 0.0078 0.1465 0.0078 0.06103 0 0.1105-0.0028 0.1504-0.0078 0.03854-5e-3 0.06931-0.01139 0.0918-0.02148 0.02065-0.01009 0.03678-0.02139 0.04688-0.03516 0.0101-0.01239 0.01562-0.03001 0.01562-0.04883v-2.297c0.1647-0.207 0.3227-0.3633 0.4746-0.4707 0.151-0.1074 0.3007-0.1621 0.4512-0.1621 0.1175 0 0.22 0.02281 0.3086 0.06641 0.08994 0.04359 0.1623 0.1073 0.2188 0.1895 0.05598 0.08351 0.09804 0.1822 0.127 0.2969 0.02983 0.1133 0.04297 0.265 0.04297 0.4531v1.924c0 0.01881 0.0055 0.03644 0.01563 0.04883 0.01009 0.01377 0.02623 0.02506 0.04687 0.03516 0.02294 0.01009 0.05325 0.01644 0.0918 0.02148 0.03992 5e-3 0.08936 0.0078 0.1504 0.0078 0.05782 0 0.107-0.0028 0.1465-0.0078 0.039-5e-3 0.06782-0.01139 0.08984-0.02148 0.02294-0.01009 0.03678-0.02139 0.04687-0.03516 0.0096-0.01239 0.01563-0.03001 0.01563-0.04883v-2.006c0-0.2331-0.01925-0.4345-0.06055-0.6016-0.03992-0.1657-0.1074-0.3107-0.1992-0.4355-0.09223-0.1234-0.2137-0.2235-0.3633-0.2969-0.1496-0.0748-0.3334-0.1113-0.5527-0.1113zm11.15 0c-0.1996 0-0.3758 0.02639-0.5254 0.08008-0.1496 0.05369-0.2754 0.1248-0.375 0.2129-0.09957 0.08856-0.1726 0.1922-0.2227 0.3105-0.05002 0.1184-0.07617 0.2426-0.07617 0.3711 0 0.1468 0.025 0.2723 0.07227 0.377 0.04726 0.1046 0.109 0.1938 0.1875 0.2695 0.07755 0.07617 0.165 0.1391 0.2637 0.1914 0.09866 0.05185 0.1995 0.0999 0.3027 0.1426 0.1037 0.04084 0.2055 0.08002 0.3027 0.1172 0.09728 0.03763 0.1847 0.08027 0.2637 0.1289 0.07709 0.04864 0.1398 0.1061 0.1875 0.1699 0.04726 0.06241 0.07031 0.1402 0.07031 0.2324 0 0.08948-0.01533 0.1678-0.04883 0.2344-0.03258 0.0647-0.08051 0.1194-0.1406 0.1621-0.06103 0.04222-0.1327 0.07517-0.2148 0.09766-0.08351 0.02111-0.175 0.03125-0.2773 0.03125-0.1358 0-0.2587-0.01533-0.3633-0.04883-0.1046-0.03258-0.1953-0.06888-0.2715-0.1074-0.07709-0.03854-0.141-0.07484-0.1934-0.1074-0.05231-0.0335-0.09161-0.04883-0.1191-0.04883-0.01606 0-0.03253 3e-3 -0.04492 0.01172-0.01377 0.0087-0.02391 0.02128-0.03125 0.04102-0.0078 0.02019-0.01253 0.04497-0.01758 0.07617-5e-3 0.03212-0.0078 0.0713-0.0078 0.1172 0 0.07617 0.0052 0.1361 0.01758 0.1797 0.01239 0.04405 0.03106 0.07874 0.05859 0.1035 0.02616 0.0234 0.07155 0.05083 0.1289 0.08203 0.05874 0.03029 0.128 0.06036 0.2129 0.08789 0.08351 0.02707 0.1792 0.04955 0.2852 0.06836 0.1055 0.01744 0.2184 0.02734 0.334 0.02734 0.1909 0 0.3632-0.02397 0.5215-0.07031 0.1583-0.04589 0.2964-0.1136 0.4102-0.2031 0.1147-0.08994 0.2017-0.1999 0.2637-0.332 0.06241-0.1312 0.09375-0.2813 0.09375-0.4492 0-0.1409-0.025-0.2629-0.07227-0.3652-0.04726-0.1023-0.1085-0.1903-0.1855-0.2637-0.07847-0.07388-0.1686-0.1346-0.2695-0.1855-0.101-0.05093-0.2034-0.09646-0.3066-0.1387-0.1032-0.0413-0.2057-0.08255-0.3066-0.1211-0.09957-0.03992-0.1885-0.08222-0.2656-0.1309-0.07847-0.04864-0.1408-0.1052-0.1895-0.1699-0.04818-0.06516-0.07227-0.1452-0.07227-0.2402 0-0.06883 0.01233-0.1307 0.03711-0.1895 0.02616-0.05828 0.06372-0.1101 0.1133-0.1523 0.05002-0.04268 0.1139-0.07379 0.1914-0.09766 0.07847-0.02386 0.1692-0.03516 0.2715-0.03516 0.1147 0 0.2161 0.01486 0.3047 0.04102 0.08994 0.02753 0.1663 0.05416 0.2324 0.08398 0.0647 0.0312 0.1189 0.06173 0.1602 0.08789 0.04222 0.02753 0.07322 0.03906 0.0957 0.03906 0.01331 0 0.02667-3e-3 0.03906-0.01172 0.01239-0.0087 0.02299-0.02278 0.03125-0.04297 0.0092-0.01835 0.01437-0.04302 0.01758-0.07422 0.0041-0.02983 0.0059-0.06658 0.0059-0.1074 0-0.039-0.0017-0.07345-0.0059-0.09961-0.0032-0.02753-0.0061-0.04897-0.0098-0.06641-0.0037-0.01835-0.01081-0.0361-0.01953-0.05078-0.0087-0.01514-0.026-0.03059-0.05078-0.05078-0.02615-0.01973-0.06326-0.04163-0.1133-0.06641-0.04956-0.02661-0.109-0.05116-0.1797-0.07227-0.07112-0.02248-0.1506-0.04138-0.2383-0.05469-0.0881-0.01514-0.1745-0.02148-0.2617-0.02148zm5.773 0c-0.06975 0-0.1412 0.0099-0.2109 0.02734-0.06975 0.01881-0.1392 0.04993-0.209 0.09766-0.07158 0.04726-0.1448 0.1132-0.2246 0.1953-0.07847 0.08214-0.164 0.1901-0.2539 0.3223v-0.4785c0-0.01973-0.0039-0.03702-0.01172-0.05078-0.0087-0.01239-0.02416-0.02369-0.04297-0.03516-0.02019-0.01101-0.04762-0.01781-0.08203-0.02148-0.03533-0.0037-0.07958-0.0059-0.1328-0.0059-0.05598 0-0.1013 0.0022-0.1348 0.0059-0.03487 0.0037-0.06345 0.01047-0.08594 0.02148-0.02111 0.01147-0.03563 0.02277-0.04297 0.03516-0.0073 0.01377-0.01172 0.03105-0.01172 0.05078v3.287c0 0.01881 5e-3 0.03644 0.01367 0.04883 0.0078 0.01377 0.02497 0.02506 0.04883 0.03516 0.02203 0.01009 0.05279 0.01644 0.0918 0.02148 0.03946 5e-3 0.08717 0.0078 0.1445 0.0078 0.06149 0 0.1124-0.0028 0.1523-0.0078 0.03854-5e-3 0.06736-0.01139 0.08984-0.02148 0.02111-0.01009 0.03873-0.02139 0.04883-0.03516 0.0096-0.01239 0.01367-0.03001 0.01367-0.04883v-2.162c0.08489-0.1335 0.1627-0.2476 0.2324-0.3398 0.07112-0.09223 0.1384-0.1667 0.2031-0.2227 0.06332-0.05598 0.1268-0.09528 0.1855-0.1191 0.05873-0.02478 0.1162-0.03906 0.1777-0.03906 0.05093 0 0.09956 6e-3 0.1445 0.01563 0.04359 0.01009 0.0814 0.02024 0.1172 0.03125 0.03533 0.01147 0.06725 0.02219 0.0957 0.0332 0.02753 0.01101 0.05058 0.01563 0.07031 0.01563 0.02019 0 0.03586-0.0046 0.04687-0.01563 0.01009-0.01101 0.02-0.02772 0.02734-0.04883 0.0064-0.02019 0.01138-0.04831 0.01367-0.08594 0.0028-0.03625 0.0039-0.08108 0.0039-0.1348-1e-6 -0.05598-1e-3 -0.1002-2e-3 -0.1328-0.0014-0.03212-0.0041-0.05678-0.0078-0.07422-0.0037-0.01698-0.0067-0.03196-0.01172-0.04297-5e-3 -0.01147-0.01415-0.02277-0.0293-0.03516-0.01377-0.01147-0.04038-0.02277-0.07617-0.03516-0.03487-0.01239-0.07359-0.02311-0.1172-0.0332-0.04359-0.0096-0.08749-0.01586-0.127-0.01953-0.03992-0.0037-0.07484-0.0059-0.1074-0.0059zm4.061 0c-0.1271 0-0.2511 0.0113-0.375 0.03516-0.1244 0.0234-0.2406 0.05152-0.3457 0.08594-0.1046 0.03625-0.1955 0.07451-0.2754 0.1172-0.08122 0.04222-0.1373 0.08013-0.1699 0.1113-0.0335 0.03212-0.05378 0.06669-0.0625 0.1016-0.0087 0.03487-0.01367 0.0835-0.01367 0.1445 0 0.03625 0.0028 0.06978 0.0078 0.09961 5e-3 0.0312 0.0138 0.05586 0.02344 0.07422 0.01147 0.02019 0.02392 0.03483 0.03906 0.04492 0.01468 0.0087 0.03197 0.01367 0.05078 0.01367 0.02983 0 0.07316-0.0174 0.1328-0.05273 0.06011-0.03579 0.1347-0.07497 0.2246-0.1172 0.08856-0.04222 0.1902-0.08094 0.3086-0.1172 0.1184-0.03487 0.2508-0.05078 0.4004-0.05078 0.1381 0 0.2566 0.01625 0.3516 0.04883 0.09453 0.0335 0.1704 0.08178 0.2305 0.1465 0.05965 0.06378 0.1033 0.1454 0.1309 0.2422 0.02615 0.09728 0.03906 0.2088 0.03906 0.3359v0.2559h-0.4531c-0.2556 0-0.4848 0.0219-0.6895 0.06641-0.2042 0.04497-0.3787 0.1123-0.5195 0.2031-0.1409 0.08994-0.248 0.204-0.3242 0.3398-0.0748 0.1372-0.1133 0.297-0.1133 0.4824 0 0.1583 0.02834 0.299 0.08203 0.4238 0.05506 0.1234 0.1318 0.2286 0.2305 0.3145 0.09866 0.08489 0.2175 0.1484 0.3574 0.1934 0.1395 0.04635 0.2972 0.06836 0.4707 0.06836 0.1969 0 0.3828-0.04402 0.5586-0.1289 0.1771-0.08443 0.3379-0.2042 0.4824-0.3574v0.3301c0 0.02845 6e-3 0.05115 0.02344 0.06445 0.01744 0.01514 0.04486 0.0254 0.08203 0.0332 0.03763 0.0073 0.08856 0.01172 0.1523 0.01172 0.0647 0 0.1155-0.0044 0.1504-0.01172 0.0335-0.0078 0.06081-0.01806 0.08008-0.0332 0.01973-0.01331 0.0293-0.036 0.0293-0.06445v-2.217c0-0.2047-0.02443-0.3834-0.07031-0.5371-0.04635-0.1528-0.1203-0.2811-0.2227-0.3848-0.1019-0.1032-0.2347-0.1826-0.4004-0.2363-0.1661-0.05369-0.3681-0.08008-0.6035-0.08008zm11.1 0c-0.2409 0-0.4597 0.04149-0.6543 0.125-0.1955 0.08443-0.3604 0.2039-0.498 0.3613-0.1381 0.1565-0.2425 0.3498-0.3164 0.5742-0.07204 0.2258-0.1094 0.48-0.1094 0.7617 0 0.2964 0.03572 0.5569 0.1055 0.7812 0.07113 0.2244 0.1759 0.4108 0.3145 0.5586 0.1395 0.1487 0.3104 0.2602 0.5137 0.3359 0.2033 0.0748 0.4387 0.1133 0.709 0.1133 0.156 0 0.3023-0.01267 0.4395-0.03516 0.1372-0.0234 0.2582-0.04922 0.3633-0.07813 0.1046-0.02983 0.1907-0.06002 0.2559-0.08984 0.06562-0.03029 0.1054-0.05264 0.1191-0.06641 0.01285-0.01239 0.02448-0.02725 0.0332-0.04102 0.0087-0.01468 0.0154-0.03047 0.01953-0.04883 0.0037-0.01881 0.0055-0.03864 0.0078-0.0625 0.0028-0.02203 0.0039-0.04945 0.0039-0.08203 0-0.04359-0.0036-0.08104-0.0059-0.1113-0.0037-0.02983-0.01024-0.05288-0.01758-0.07031-0.0078-0.01744-0.01748-0.02989-0.03125-0.03906-0.01239-0.0087-0.02886-0.01367-0.04492-0.01367-0.02983 0-0.07155 0.01245-0.1289 0.03906-0.05736 0.02478-0.1302 0.05473-0.2188 0.08594-0.08856 0.03258-0.1953 0.0607-0.3164 0.08594-0.1221 0.02616-0.26 0.03711-0.416 0.03711-0.1982 0-0.3628-0.02605-0.5-0.08203-0.1358-0.05598-0.2471-0.1376-0.332-0.2422-0.08581-0.1046-0.1473-0.2291-0.1836-0.375-0.03579-0.1468-0.05469-0.3111-0.05469-0.4941h2.154c0.06103 0 0.1148-0.02063 0.1621-0.06055 0.04772-0.03992 0.07227-0.1081 0.07227-0.2031v-0.1094c0-0.2148-0.02743-0.414-0.08203-0.6035-0.05461-0.1881-0.1403-0.3527-0.2578-0.4922-0.117-0.1395-0.2665-0.2518-0.4473-0.334-0.1817-0.08351-0.4003-0.125-0.6582-0.125zm-25.59 0.05078c-0.05873 0-0.1079 0.0022-0.1465 0.0059-0.03992 0.0037-0.07047 0.01047-0.0957 0.02148-0.0234 0.01147-0.04011 0.02277-0.04883 0.03516-0.0087 0.01377-0.01172 0.03105-0.01172 0.05078v1.994c0 0.2382 0.02063 0.4418 0.06055 0.6074 0.03992 0.167 0.1056 0.3137 0.1992 0.4395 0.09223 0.1262 0.2117 0.2235 0.3613 0.2969 0.1496 0.0725 0.3353 0.1094 0.5547 0.1094 0.1872 0 0.3725-0.04667 0.5547-0.1426 0.1831-0.09453 0.3666-0.2462 0.5547-0.4531v0.4355c0 0.01881 0.0038 0.03644 0.0098 0.04883 0.0073 0.01377 0.02186 0.02506 0.04297 0.03516 0.02157 0.01009 0.04911 0.01644 0.08398 0.02148 0.03579 5e-3 0.08074 0.0078 0.1367 0.0078 0.05139 0 0.09553-0.0028 0.1309-0.0078 0.03625-5e-3 0.06483-0.01139 0.08594-0.02148 0.02248-0.01009 0.0362-0.02139 0.04492-0.03516 0.0087-0.01239 0.01367-0.03001 0.01367-0.04883v-3.287c0-0.01973-0.0061-0.03702-0.01758-0.05078-0.01101-0.01239-0.02634-0.02369-0.04883-0.03516-0.02111-0.01101-0.05325-0.01781-0.0918-0.02148-0.039-0.0037-0.0858-0.0059-0.1445-0.0059-0.06103 0-0.1113 0.0022-0.1484 0.0059-0.03763 0.0037-0.07035 0.01047-0.09375 0.02148-0.02524 0.01147-0.04011 0.02277-0.04883 0.03516-0.0087 0.01377-0.01367 0.03105-0.01367 0.05078v2.297c-0.1684 0.207-0.3256 0.3633-0.4766 0.4707-0.1491 0.1074-0.2983 0.1621-0.4492 0.1621-0.117 0-0.22-0.02247-0.3086-0.06836-0.08719-0.04497-0.1594-0.1073-0.2168-0.1895-0.0569-0.08122-0.09942-0.1793-0.127-0.2949-0.02845-0.1161-0.04297-0.2711-0.04297-0.4629v-1.914c0-0.01973-0.0055-0.03702-0.01562-0.05078-0.0101-0.01239-0.02439-0.02369-0.04688-0.03516-0.0234-0.01101-0.05475-0.01781-0.09375-0.02148-0.03855-0.0037-0.08821-0.0059-0.1465-0.0059zm11.9 0c-0.05736 0-0.1046 0.0028-0.1445 0.0078-0.03854 5e-3 -0.06931 0.01139-0.0918 0.02148-0.02386 0.0087-0.04149 0.02197-0.04883 0.03711-0.0087 0.01468-0.01367 0.02944-0.01367 0.04687v3.287c0 0.01881 5e-3 0.03644 0.01367 0.04883 0.0073 0.01377 0.02497 0.02506 0.04883 0.03516 0.02248 0.01009 0.05325 0.01644 0.0918 0.02148 0.03992 5e-3 0.08717 0.0078 0.1445 0.0078 0.06103 0 0.1124-0.0028 0.1523-0.0078 0.03854-5e-3 0.06736-0.01139 0.08984-0.02148 0.02111-0.01009 0.03678-0.02139 0.04687-0.03516 0.01009-0.01239 0.01563-0.03001 0.01563-0.04883v-3.287c0-0.01744-0.0055-0.03219-0.01563-0.04687-0.01009-0.01514-0.02577-0.02839-0.04687-0.03711-0.02248-0.01009-0.0513-0.01644-0.08984-0.02148-0.03992-5e-3 -0.09131-0.0078-0.1523-0.0078zm13.67 0.4199c0.2891 0 0.5075 0.09069 0.6543 0.2715 0.1482 0.1794 0.2187 0.4275 0.2109 0.7441h-1.783c0.0055-0.1344 0.02901-0.2633 0.07031-0.3867 0.0413-0.1221 0.09961-0.2296 0.1758-0.3223 0.0748-0.09223 0.1669-0.1681 0.2793-0.2227 0.1124-0.05598 0.243-0.08398 0.3926-0.08398zm-28.52 0.04687c0.1657 0 0.3227 0.05416 0.4746 0.1602 0.1523 0.106 0.3113 0.259 0.4746 0.4609v1.314c-0.09499 0.1198-0.1866 0.2206-0.2715 0.3027-0.08443 0.08122-0.1671 0.1463-0.2441 0.1973-0.07847 0.05139-0.1531 0.08827-0.2266 0.1094-0.07479 0.02248-0.1536 0.03516-0.2344 0.03516-0.1574 0-0.288-0.03849-0.3926-0.1133-0.1051-0.07342-0.1886-0.1719-0.252-0.2949-0.06378-0.1239-0.11-0.2645-0.1348-0.4219-0.02615-0.1583-0.03711-0.3207-0.03711-0.4863 0-0.156 0.01372-0.308 0.04492-0.459 0.03028-0.1505 0.07949-0.2859 0.1465-0.4043 0.06745-0.1198 0.1543-0.2176 0.2617-0.291 0.1055-0.07204 0.2374-0.1094 0.3906-0.1094zm24.52 0c0.1657 0 0.3227 0.05416 0.4746 0.1602 0.1523 0.106 0.3113 0.259 0.4746 0.4609v1.314c-0.09499 0.1198-0.1866 0.2206-0.2715 0.3027-0.08489 0.08122-0.1666 0.1463-0.2441 0.1973-0.07801 0.05139-0.1551 0.08827-0.2285 0.1094-0.0748 0.02248-0.1517 0.03516-0.2324 0.03516-0.1569 0-0.2895-0.03849-0.3945-0.1133-0.1046-0.07342-0.1867-0.1719-0.25-0.2949-0.06378-0.1239-0.11-0.2645-0.1348-0.4219-0.02616-0.1583-0.03906-0.3207-0.03906-0.4863 0-0.156 0.01567-0.308 0.04687-0.459 0.03029-0.1505 0.07903-0.2859 0.1465-0.4043 0.06745-0.1198 0.1548-0.2176 0.2617-0.291 0.106-0.07204 0.2374-0.1094 0.3906-0.1094zm-6.887 1.438h0.5137v0.6953c-0.1482 0.1657-0.2894 0.2893-0.4238 0.3691-0.1358 0.08122-0.2831 0.1211-0.4414 0.1211-0.1946 0-0.3468-0.05139-0.4551-0.1523-0.1088-0.101-0.1621-0.2375-0.1621-0.4082 0-0.09958 0.01901-0.1866 0.05664-0.2637 0.03717-0.07571 0.09835-0.1427 0.1777-0.1973 0.08122-0.05461 0.1821-0.09609 0.3027-0.125 0.1225-0.02753 0.266-0.03906 0.4316-0.03906zm5.527 5.645c-0.05873 0-0.1074 0.0018-0.1445 0.0078-0.03763 0.0064-0.06794 0.01472-0.0918 0.02344-0.02524 0.0073-0.04206 0.0191-0.05078 0.03516-0.0087 0.01606-0.01172 0.03277-0.01172 0.04883v1.912c-0.156-0.1633-0.3154-0.2886-0.4746-0.373-0.1597-0.08397-0.3355-0.125-0.5273-0.125-0.2322 0-0.4342 0.0431-0.6113 0.1289-0.1757 0.08764-0.3236 0.2105-0.4434 0.3711-0.1184 0.1597-0.2105 0.3559-0.2715 0.584-0.06011 0.2267-0.08984 0.481-0.08984 0.7637 0 0.2382 0.02363 0.466 0.07227 0.6816 0.0491 0.2152 0.1264 0.4028 0.2324 0.5625 0.106 0.1592 0.2443 0.2853 0.4141 0.3789 0.1707 0.09361 0.3754 0.1406 0.6172 0.1406 0.2207 0 0.4255-0.05163 0.6113-0.1562 0.1868-0.1046 0.3674-0.2513 0.5391-0.4395v0.4355c0 0.01835 0.0036 0.03564 0.01367 0.05078 0.0101 0.01377 0.02772 0.02644 0.04883 0.03516 0.02248 0.0073 0.04911 0.01448 0.08398 0.01953 0.0335 0.0046 0.07556 0.0078 0.127 0.0078 0.04864 0 0.09013-0.0032 0.125-0.0078 0.0335-5e-3 0.06046-0.01219 0.08203-0.01953 0.01973-0.0087 0.03425-0.02139 0.04297-0.03516 0.0087-0.01514 0.01367-0.03243 0.01367-0.05078v-4.865c0-0.01606-0.0061-0.03277-0.01758-0.04883-0.01101-0.01606-0.02634-0.02781-0.04883-0.03516-0.02111-0.0087-0.05325-0.01701-0.0918-0.02344-0.03854-6e-3 -0.08741-0.0078-0.1484-0.0078zm-22.06 0.2754c-0.2042 0-0.3946 0.02892-0.5703 0.08398-0.1771 0.05461-0.3285 0.1337-0.457 0.2383-0.1271 0.1046-0.2263 0.234-0.2988 0.3887-0.07067 0.1546-0.1074 0.3305-0.1074 0.5273 0 0.1932 0.03031 0.3589 0.0918 0.4961 0.06241 0.1381 0.1426 0.257 0.2422 0.3594 0.09957 0.1019 0.2147 0.1914 0.3418 0.2676 0.1257 0.0748 0.2551 0.144 0.3887 0.2051 0.1349 0.06241 0.2655 0.1235 0.3926 0.1836 0.1285 0.05965 0.2418 0.1248 0.3418 0.1973 0.1 0.07204 0.1806 0.155 0.2402 0.25 0.06103 0.09453 0.09375 0.2083 0.09375 0.3418 0 0.1244-0.02281 0.2367-0.06641 0.334-0.04359 0.09728-0.1073 0.1786-0.1895 0.2461-0.08076 0.06608-0.1781 0.118-0.291 0.1543-0.1138 0.03579-0.2378 0.05469-0.375 0.05469-0.1794 0-0.3398-0.02028-0.4766-0.0625-0.1377-0.04222-0.2529-0.08808-0.3516-0.1367-0.09682-0.04864-0.1778-0.0945-0.2402-0.1367-0.06103-0.0413-0.1091-0.06055-0.1426-0.06055-0.02019 0-0.03747 3e-3 -0.05078 0.01172-0.01514 0.0087-0.02701 0.02393-0.03711 0.04687-0.0087 0.02065-0.0169 0.04911-0.02148 0.08398-5e-3 0.03625-0.0078 0.07913-0.0078 0.1328 0 0.07617 0.0058 0.1367 0.01953 0.1816 0.01377 0.04451 0.03359 0.0815 0.0625 0.1113 0.02707 0.02891 0.07789 0.06521 0.1504 0.1074 0.07204 0.0413 0.1596 0.0806 0.2656 0.1191 0.106 0.03992 0.2269 0.0715 0.3613 0.09766 0.1349 0.02753 0.2826 0.04102 0.4414 0.04102 0.2267 0 0.4373-0.03077 0.6328-0.0918 0.1973-0.06011 0.3652-0.1508 0.5098-0.2715 0.1459-0.1211 0.2592-0.2665 0.3418-0.4395 0.08076-0.1735 0.1211-0.3711 0.1211-0.5918 0-0.1881-0.03134-0.3497-0.09375-0.4883-0.06103-0.1367-0.1432-0.2565-0.2441-0.3574-0.101-0.101-0.2158-0.1889-0.3457-0.2637-0.128-0.07342-0.2595-0.1427-0.3926-0.2051-0.1344-0.06195-0.2671-0.1221-0.3965-0.1836-0.1285-0.05965-0.2428-0.1278-0.3438-0.2012-0.1019-0.0725-0.1807-0.157-0.2422-0.252-0.06103-0.09453-0.09375-0.2067-0.09375-0.3379 0-0.09086 0.01671-0.176 0.04883-0.2559 0.0312-0.08122 0.0788-0.1516 0.1426-0.209 0.06332-0.05874 0.1434-0.1058 0.2402-0.1406 0.09728-0.03625 0.2116-0.05273 0.3438-0.05273 0.1409 0 0.2695 0.01648 0.3828 0.05273 0.1133 0.03487 0.2095 0.07451 0.293 0.1172 0.08214 0.04359 0.1536 0.08036 0.2109 0.1152 0.0569 0.03396 0.09884 0.05078 0.125 0.05078 0.01744 0 0.03311-0.0055 0.04687-0.01563 0.01285-0.01101 0.02391-0.0283 0.03125-0.05078 0.0064-0.02386 0.0115-0.05198 0.01563-0.08594 0.0037-0.03487 0.0059-0.07359 0.0059-0.1172 0-0.04589-0.0031-0.08346-0.0059-0.1133-0.0023-0.02845-0.0047-0.05506-0.0098-0.07617-0.0037-0.01973-0.01024-0.03747-0.01758-0.05078-0.0073-0.01377-0.02301-0.03083-0.04687-0.05469-0.02203-0.02249-0.07111-0.05268-0.1445-0.08984-0.0725-0.03763-0.1544-0.07369-0.248-0.1035-0.09315-0.0312-0.1948-0.05391-0.3008-0.07227-0.106-0.01744-0.2118-0.0293-0.3164-0.0293zm10.07 0.4258c-0.05874 0-0.1075 8.12e-4 -0.1465 0.0059-0.03992 5e-3 -0.07081 0.01392-0.09375 0.02539-0.0234 0.01101-0.0377 0.02197-0.04687 0.03711-0.0087 0.01468-0.01172 0.02944-0.01172 0.04687v0.7832h-0.459c-0.01881 0-0.03472 3e-3 -0.05078 0.01172-0.01606 0.0087-0.02897 0.02278-0.03906 0.04297-0.01009 0.02065-0.01701 0.04738-0.02344 0.07813-6e-3 0.03258-0.0098 0.07325-0.0098 0.1191 0 0.08719 0.01072 0.1509 0.0332 0.1895 0.02248 0.03992 0.05164 0.05664 0.08789 0.05664h0.4609v1.922c0 0.1909 0.01591 0.3542 0.05078 0.4941 0.03487 0.1409 0.09237 0.2554 0.1699 0.3477 0.07847 0.09086 0.1781 0.1592 0.2988 0.2051 0.1221 0.04497 0.2688 0.06836 0.4395 0.06836 0.05598 0 0.1115-0.0039 0.168-0.01172 0.05598-0.0073 0.1086-0.01633 0.1582-0.02734 0.05002-0.01147 0.09622-0.02553 0.1348-0.04297 0.03855-0.01606 0.06758-0.03496 0.08594-0.05469 0.02019-0.01881 0.03483-0.0505 0.04492-0.0918 0.0087-0.04084 0.01367-0.0973 0.01367-0.168 0-0.04359-0.0013-0.07909-0.0059-0.1094-0.0041-0.02845-0.01115-0.05092-0.01758-0.06836-6e-3 -0.01744-0.01438-0.02873-0.02539-0.03516-0.01147-6e-3 -0.02081-0.0078-0.0332-0.0078-0.02019 0-0.04163 0.0046-0.06641 0.01563-0.02386 0.01147-0.05439 0.02277-0.08789 0.03516-0.03396 0.01147-0.07359 0.02369-0.1172 0.03516-0.04359 0.0096-0.09441 0.01563-0.1504 0.01563-0.173 0-0.2919-0.05911-0.3594-0.1738-0.06608-0.1156-0.09961-0.2865-0.09961-0.5137v-1.834h0.8438c0.03625 0 0.06541-0.01672 0.08789-0.05664 0.02248-0.03854 0.03125-0.1023 0.03125-0.1895 0-0.04589-0.0013-0.08656-0.0059-0.1191-0.0041-0.03074-0.01392-0.05748-0.02539-0.07813-0.01009-0.02019-0.0238-0.03425-0.03711-0.04297-0.01514-0.0087-0.03197-0.01172-0.05078-0.01172h-0.8438v-0.7832c0-0.01744-6e-3 -0.03219-0.01563-0.04687-0.01009-0.01514-0.02439-0.0261-0.04687-0.03711-0.02111-0.01147-0.05325-0.02034-0.0918-0.02539-0.03854-5e-3 -0.08741-0.0059-0.1484-0.0059zm-6.703 0.8281c-0.1276 0-0.2535 0.01175-0.377 0.03516-0.1244 0.02386-0.2391 0.05106-0.3438 0.08594-0.1051 0.03625-0.198 0.07497-0.2773 0.1172-0.08122 0.04268-0.1373 0.07967-0.1699 0.1113-0.0335 0.03212-0.05378 0.06669-0.0625 0.1016-0.0083 0.03487-0.01367 0.0835-0.01367 0.1445 0 0.03625 0.0028 0.06978 0.0078 0.09961 5e-3 0.0312 0.0138 0.05541 0.02344 0.07422 0.01147 0.01973 0.02392 0.03483 0.03906 0.04492 0.01468 0.0087 0.03197 0.01367 0.05078 0.01367 0.02983 0 0.07511-0.01786 0.1348-0.05273 0.06011-0.03579 0.1327-0.07497 0.2227-0.1172 0.08856-0.04222 0.1922-0.07944 0.3105-0.1152 0.1184-0.03533 0.2508-0.05273 0.4004-0.05273 0.1386 0 0.2546 0.01475 0.3496 0.04687 0.09453 0.03396 0.1723 0.08374 0.2324 0.1484 0.05965 0.06378 0.1014 0.1449 0.1289 0.2422 0.02661 0.09728 0.04102 0.2093 0.04102 0.3359v0.2559h-0.4531c-0.2556 0-0.4872 0.02144-0.6914 0.06641s-0.3767 0.1118-0.5176 0.2031c-0.1404 0.08948-0.25 0.2036-0.3262 0.3398-0.0748 0.1367-0.1113 0.2966-0.1113 0.4824 0 0.1583 0.02685 0.2995 0.08008 0.4238 0.05506 0.1234 0.1318 0.2282 0.2305 0.3145 0.0982 0.08489 0.2194 0.1484 0.3594 0.1934 0.1395 0.04589 0.2953 0.06836 0.4688 0.06836 0.1969 0 0.3848-0.04206 0.5605-0.127 0.1771-0.08489 0.3359-0.2042 0.4805-0.3574v0.3281c0 0.02845 8e-3 0.05069 0.02539 0.06445 0.01744 0.01468 0.04486 0.02586 0.08203 0.0332 0.03763 0.0078 0.08856 0.01172 0.1523 0.01172 0.0647 0 0.1136-0.0039 0.1484-0.01172 0.0335-0.0073 0.06126-0.01852 0.08008-0.0332 0.01973-0.01377 0.03125-0.036 0.03125-0.06445v-2.219c0-0.2042-0.02397-0.3814-0.07031-0.5352-0.04589-0.1533-0.1223-0.2815-0.2246-0.3848-0.1019-0.1033-0.2347-0.1831-0.4004-0.2363-0.1661-0.05369-0.3662-0.08008-0.6016-0.08008zm4.057 0c-0.1872 0-0.3736 0.04863-0.5566 0.1445-0.1845 0.0959-0.3702 0.2486-0.5547 0.4551v-0.4355c0-0.01973-0.0044-0.03506-0.01172-0.04883-0.0087-0.01239-0.02416-0.0261-0.04297-0.03711-0.01973-0.01101-0.04716-0.01781-0.08203-0.02148-0.03487-0.0037-0.07912-0.0059-0.1328-0.0059-0.05598 0-0.1008 0.0022-0.1348 0.0059-0.03487 0.0037-0.06104 0.01047-0.08398 0.02148-0.02111 0.01101-0.03712 0.02472-0.04492 0.03711-0.0073 0.01377-0.0098 0.0291-0.0098 0.04883v3.287c0 0.01835 5e-3 0.03598 0.01367 0.04883 0.0073 0.01331 0.02347 0.02552 0.04687 0.03516 0.02248 0.01009 0.05325 0.01644 0.0918 0.02148 0.03992 0.0046 0.08913 0.0078 0.1465 0.0078 0.06103 0 0.1105-0.0032 0.1504-0.0078 0.03854-5e-3 0.06931-0.01139 0.0918-0.02148 0.02111-0.0096 0.03678-0.02185 0.04687-0.03516 0.01009-0.01285 0.01563-0.03047 0.01563-0.04883v-2.297c0.1643-0.207 0.3223-0.3638 0.4746-0.4707 0.1505-0.1074 0.3007-0.1621 0.4512-0.1621 0.1175 0 0.22 0.02281 0.3086 0.06641 0.08948 0.04359 0.1628 0.1073 0.2188 0.1895 0.05598 0.08351 0.09804 0.1826 0.127 0.2969 0.02983 0.1138 0.04297 0.2645 0.04297 0.4531v1.924c0 0.01835 4e-3 0.03598 0.01367 0.04883 0.01009 0.01331 0.02772 0.02552 0.04883 0.03516 0.02248 0.01009 0.0513 0.01644 0.08984 0.02148 0.03992 0.0046 0.09131 0.0078 0.1523 0.0078 0.05736 0 0.1051-0.0032 0.1445-0.0078 0.039-5e-3 0.06931-0.01139 0.0918-0.02148 0.02248-0.0096 0.03724-0.02185 0.04687-0.03516 0.01009-0.01285 0.01563-0.03047 0.01563-0.04883v-2.006c0-0.2331-0.0212-0.4326-0.0625-0.5996-0.03946-0.1661-0.105-0.3127-0.1973-0.4375-0.09223-0.1234-0.2137-0.223-0.3633-0.2969-0.1496-0.0748-0.3334-0.1113-0.5527-0.1113zm5.799 0c-0.1271 0-0.2535 0.01175-0.377 0.03516-0.1244 0.02386-0.2387 0.05106-0.3438 0.08594-0.1046 0.03625-0.1975 0.07497-0.2773 0.1172-0.08076 0.04268-0.1373 0.07967-0.1699 0.1113-0.0335 0.03212-0.05183 0.06669-0.06055 0.1016-0.0087 0.03487-0.01563 0.0835-0.01563 0.1445 0 0.03625 0.0028 0.06978 0.0078 0.09961 5e-3 0.0312 0.0138 0.05541 0.02344 0.07422 0.01147 0.01973 0.02392 0.03483 0.03906 0.04492 0.01468 0.0087 0.03392 0.01367 0.05273 0.01367 0.02983 0 0.07316-0.01786 0.1328-0.05273 0.06011-0.03579 0.1327-0.07497 0.2227-0.1172 0.0881-0.04222 0.1922-0.07944 0.3105-0.1152 0.1184-0.03533 0.2508-0.05273 0.4004-0.05273 0.1381 0 0.2546 0.01475 0.3496 0.04687 0.09453 0.03396 0.1723 0.08374 0.2324 0.1484 0.05965 0.06378 0.1014 0.1449 0.1289 0.2422 0.02616 0.09728 0.04102 0.2093 0.04102 0.3359v0.2559h-0.4531c-0.2556 0-0.4868 0.02144-0.6914 0.06641-0.2042 0.04497-0.3767 0.1118-0.5176 0.2031-0.1409 0.08948-0.25 0.2036-0.3262 0.3398-0.0748 0.1367-0.1113 0.2966-0.1113 0.4824 0 0.1583 0.02639 0.2995 0.08008 0.4238 0.05506 0.1234 0.1318 0.2282 0.2305 0.3145 0.0982 0.08489 0.2194 0.1484 0.3594 0.1934 0.1395 0.04589 0.2958 0.06836 0.4688 0.06836 0.1973 0 0.3848-0.04206 0.5605-0.127 0.1771-0.08489 0.3355-0.2042 0.4805-0.3574v0.3281c0 0.02845 8e-3 0.05069 0.02539 0.06445 0.01744 0.01468 0.04486 0.02586 0.08203 0.0332 0.03763 0.0078 0.08856 0.01172 0.1523 0.01172 0.0647 0 0.114-0.0039 0.1484-0.01172 0.03396-0.0073 0.06081-0.01852 0.08008-0.0332 0.01973-0.01377 0.03125-0.036 0.03125-0.06445v-2.219c0-0.2042-0.02443-0.3814-0.07031-0.5352-0.04635-0.1533-0.1203-0.2815-0.2227-0.3848-0.1023-0.1033-0.2367-0.1831-0.4023-0.2363-0.1661-0.05369-0.3662-0.08008-0.6016-0.08008zm4.057 0c-0.1872 0-0.3736 0.04863-0.5566 0.1445-0.1845 0.0959-0.3702 0.2486-0.5547 0.4551v-0.4355c0-0.01973-0.0044-0.03506-0.01172-0.04883-0.0087-0.01239-0.02416-0.0261-0.04297-0.03711-0.01973-0.01101-0.04716-0.01781-0.08203-0.02148-0.03487-0.0037-0.07958-0.0059-0.1328-0.0059-0.05644 0-0.1013 0.0022-0.1348 0.0059-0.03487 0.0037-0.0615 0.01047-0.08398 0.02148-0.02111 0.01101-0.03712 0.02472-0.04492 0.03711-0.0073 0.01377-0.0098 0.0291-0.0098 0.04883v3.287c0 0.01835 0.0035 0.03598 0.01172 0.04883 0.0078 0.01331 0.02497 0.02552 0.04883 0.03516 0.02248 0.01009 0.05325 0.01644 0.0918 0.02148 0.03992 0.0046 0.08913 0.0078 0.1465 0.0078 0.06103 0 0.1105-0.0032 0.1504-0.0078 0.03854-5e-3 0.06931-0.01139 0.0918-0.02148 0.02111-0.0096 0.03678-0.02185 0.04687-0.03516 0.01009-0.01285 0.01367-0.03047 0.01367-0.04883v-2.297c0.1647-0.207 0.3242-0.3638 0.4766-0.4707 0.1505-0.1074 0.3007-0.1621 0.4512-0.1621 0.1175 0 0.22 0.02281 0.3086 0.06641 0.08948 0.04359 0.1628 0.1073 0.2188 0.1895 0.05598 0.08351 0.09804 0.1826 0.127 0.2969 0.02983 0.1138 0.04297 0.2645 0.04297 0.4531v1.924c0 0.01835 0.0055 0.03598 0.01563 0.04883 0.0096 0.01331 0.02577 0.02552 0.04687 0.03516 0.02248 0.01009 0.0513 0.01644 0.08984 0.02148 0.03992 0.0046 0.09177 0.0078 0.1523 0.0078 0.05736 0 0.1066-0.0032 0.1465-0.0078 0.03854-5e-3 0.06736-0.01139 0.08984-0.02148 0.02248-0.0096 0.03678-0.02185 0.04687-0.03516 0.0101-0.01285 0.01563-0.03047 0.01563-0.04883v-2.006c0-0.2331-0.01971-0.4326-0.06055-0.5996-0.03992-0.1661-0.1074-0.3127-0.1992-0.4375-0.09223-0.1234-0.2137-0.223-0.3633-0.2969-0.1496-0.0748-0.3334-0.1113-0.5527-0.1113zm7.561 0c-0.2404 0-0.4578 0.04103-0.6523 0.125-0.1955 0.08443-0.3608 0.2044-0.498 0.3613-0.1386 0.1569-0.243 0.3498-0.3164 0.5742-0.0725 0.2258-0.1113 0.48-0.1113 0.7617 0 0.2969 0.03722 0.5569 0.1074 0.7812 0.07113 0.2244 0.1744 0.4104 0.3125 0.5586 0.1395 0.1487 0.3109 0.2598 0.5137 0.3359 0.2033 0.0748 0.4402 0.1133 0.7109 0.1133 0.1556 0 0.3042-0.01267 0.4414-0.03516 0.1367-0.02386 0.2567-0.04967 0.3613-0.07813 0.1046-0.02983 0.1912-0.06002 0.2559-0.08984 0.06608-0.02983 0.1054-0.05264 0.1191-0.06641 0.01239-0.01239 0.02448-0.02725 0.0332-0.04102 0.0087-0.01514 0.01391-0.03001 0.01758-0.04883 0.0037-0.01881 0.0075-0.03864 0.0098-0.0625 0.0023-0.02249 0.0039-0.04991 0.0039-0.08203 0-0.04359-0.0031-0.0815-0.0059-0.1113-0.0037-0.02983-0.01024-0.05288-0.01758-0.07031-0.0073-0.0179-0.01748-0.03034-0.03125-0.03906-0.01239-0.0087-0.02886-0.01172-0.04492-0.01172-0.03028 0-0.07155 0.01095-0.1289 0.03711-0.05736 0.02478-0.1302 0.05473-0.2188 0.08594-0.08856 0.03258-0.1957 0.06116-0.3164 0.08594-0.1221 0.02616-0.26 0.03711-0.416 0.03711-0.1978 0-0.3633-0.02559-0.5-0.08203-0.1363-0.05598-0.2471-0.1371-0.332-0.2422-0.08581-0.1046-0.1469-0.2291-0.1836-0.375-0.03579-0.1473-0.05469-0.3106-0.05469-0.4941h2.154c0.06103 0 0.1148-0.01867 0.1621-0.05859 0.04726-0.03992 0.07227-0.1106 0.07227-0.2051v-0.1094c0-0.2143-0.02892-0.414-0.08398-0.6035-0.05461-0.1886-0.1388-0.3527-0.2559-0.4922-0.117-0.14-0.2665-0.2518-0.4473-0.334-0.1822-0.08351-0.4023-0.125-0.6602-0.125zm3.805 0c-0.06975 0-0.1392 0.0099-0.209 0.02734-0.06975 0.01835-0.1388 0.04993-0.209 0.09766-0.07113 0.04726-0.1467 0.1147-0.2266 0.1973-0.07847 0.08214-0.162 0.1882-0.252 0.3203v-0.4785c0-0.01973-0.0059-0.03506-0.01367-0.04883-0.0087-0.01239-0.0222-0.0261-0.04102-0.03711-0.02019-0.01101-0.04762-0.01781-0.08203-0.02148-0.03533-0.0037-0.08154-0.0059-0.1348-0.0059-0.05598 0-0.1013 0.0022-0.1348 0.0059-0.03533 0.0037-0.0615 0.01047-0.08398 0.02148-0.02111 0.01101-0.03563 0.02472-0.04297 0.03711-0.0078 0.01377-0.01172 0.0291-0.01172 0.04883v3.287c0 0.01835 5e-3 0.03598 0.01367 0.04883 0.0073 0.01331 0.02347 0.02552 0.04687 0.03516 0.02249 0.01009 0.05279 0.01644 0.0918 0.02148 0.03946 0.0046 0.08913 0.0078 0.1465 0.0078 0.06149 0 0.1105-0.0032 0.1504-0.0078 0.03854-5e-3 0.06931-0.01139 0.0918-0.02148 0.02111-0.0096 0.03724-0.02185 0.04687-0.03516 0.01009-0.01285 0.01563-0.03047 0.01563-0.04883v-2.162c0.08489-0.1335 0.1627-0.2476 0.2324-0.3398 0.07067-0.09223 0.1384-0.1667 0.2031-0.2227 0.06332-0.05644 0.1249-0.09528 0.1836-0.1191 0.05873-0.02524 0.1187-0.03906 0.1797-0.03906 0.05094 0 0.09807 0.0055 0.1426 0.01563 0.04405 0.0101 0.08335 0.01978 0.1191 0.03125 0.03533 0.01101 0.0653 0.02173 0.09375 0.0332 0.02753 0.01101 0.05208 0.01562 0.07227 0.01562s0.03391-0.0046 0.04492-0.01562c0.01009-0.01147 0.02-0.02772 0.02734-0.04883 0.0064-0.01973 0.01138-0.04877 0.01367-0.08594 0.0023-0.03625 0.0039-0.07958 0.0039-0.1328 0-0.05644-5.76e-4 -0.1026-2e-3 -0.1348-9.18e-4 -0.03258-0.0022-0.05678-0.0059-0.07422s-0.0086-0.0315-0.01367-0.04297c-5e-3 -0.01101-0.01461-0.02322-0.0293-0.03516-0.01377-0.01147-0.03843-0.02277-0.07422-0.03516-0.03487-0.01285-0.07555-0.02311-0.1191-0.0332-0.04359-0.0101-0.08508-0.01586-0.125-0.01953-0.03992-0.0041-0.0768-0.0059-0.1094-0.0059zm-3.828 0.4707c0.2886 0 0.507 0.09069 0.6543 0.2715 0.1482 0.1794 0.2183 0.4275 0.2109 0.7441h-1.783c5e-3 -0.1349 0.02901-0.2637 0.07031-0.3867 0.0413-0.1225 0.09961-0.23 0.1758-0.3223 0.0748-0.09223 0.1669-0.1661 0.2793-0.2207 0.112-0.05644 0.243-0.08594 0.3926-0.08594zm-4.004 0.04687c0.1657 0 0.3242 0.05416 0.4766 0.1602 0.1519 0.106 0.3113 0.259 0.4746 0.4609v1.316c-0.09499 0.1193-0.1866 0.2186-0.2715 0.3008-0.08443 0.08122-0.1671 0.1463-0.2441 0.1973-0.07847 0.05093-0.1551 0.08976-0.2285 0.1113-0.0748 0.02249-0.1512 0.0332-0.2324 0.0332-0.1569 0-0.2899-0.03848-0.3945-0.1133-0.1046-0.07388-0.1886-0.1715-0.252-0.2949-0.06378-0.1234-0.1076-0.2645-0.1328-0.4219-0.02616-0.1579-0.03906-0.3202-0.03906-0.4863 0-0.1556 0.01521-0.308 0.04687-0.459 0.02983-0.151 0.07754-0.2879 0.1445-0.4062 0.06745-0.1193 0.1563-0.2156 0.2637-0.2891 0.106-0.07204 0.2354-0.1094 0.3887-0.1094zm-17.26 1.436h0.5156v0.6973c-0.1482 0.1657-0.2913 0.2893-0.4258 0.3691-0.1358 0.08076-0.2811 0.1211-0.4395 0.1211-0.1946 0-0.3468-0.05139-0.4551-0.1523-0.1088-0.101-0.1621-0.237-0.1621-0.4082 0-0.09958 0.01901-0.1866 0.05664-0.2637 0.03717-0.07617 0.09594-0.1407 0.1758-0.1953 0.08122-0.05506 0.1821-0.09655 0.3027-0.125 0.1221-0.02753 0.266-0.04297 0.4316-0.04297zm9.855 0h0.5156v0.6973c-0.1482 0.1657-0.2913 0.2893-0.4258 0.3691-0.1358 0.08076-0.2811 0.1211-0.4395 0.1211-0.1946 0-0.3468-0.05139-0.4551-0.1523-0.1088-0.101-0.1621-0.237-0.1621-0.4082 0-0.09958 0.01901-0.1866 0.05664-0.2637 0.03717-0.07617 0.09594-0.1407 0.1758-0.1953 0.08122-0.05506 0.1821-0.09655 0.3027-0.125 0.1225-0.02753 0.266-0.04297 0.4316-0.04297z" style="fill:#fff"/>
 </g>
</svg>
