<svg id="e9bab3d6-13d3-42cd-9eaf-0bc4483c4e90" data-name="Layer 1" xmlns="http://www.w3.org/2000/svg" viewBox="0 0 403.6 391"><defs><style>.ec0af374-2d3c-4963-8800-44f1fe9299af{fill:#2987af;stroke:#2987af;}.b5b9021a-64ee-4ceb-a9d7-2b248d054fe7,.e21a9b4a-1737-4736-87d2-6450b5228d6f,.ec0af374-2d3c-4963-8800-44f1fe9299af{stroke-miterlimit:10;}.e21a9b4a-1737-4736-87d2-6450b5228d6f,.fa05e7f9-269f-4c65-bf7a-39e1caa45e1c{fill:#fff;}.e21a9b4a-1737-4736-87d2-6450b5228d6f{stroke:#fff;}.b5b9021a-64ee-4ceb-a9d7-2b248d054fe7{fill:#62bb46;stroke:#62bb46;}</style></defs><circle class="ec0af374-2d3c-4963-8800-44f1fe9299af" cx="186.7" cy="186.7" r="186.2"/><path class="e21a9b4a-1737-4736-87d2-6450b5228d6f" d="M339.217,322.82s-52.7614,11.38-88.5892-31.22S231.91,205.9635,240.31,191.5635c0,0-99.91,67.6365-74.11,201.4365S309.4628,555.089,313.1314,554.7445,201.9,492,275.6284,369.7c3.6179-2.7794,24.4263-36.7336,63.5886-46.88" transform="translate(-105.6 -183)"/><circle class="e21a9b4a-1737-4736-87d2-6450b5228d6f" cx="183.975" cy="80.625" r="37.125"/><circle class="b5b9021a-64ee-4ceb-a9d7-2b248d054fe7" cx="274.45" cy="261.85" r="128.65"/><path class="fa05e7f9-269f-4c65-bf7a-39e1caa45e1c" d="M278.2446,466.1191q0,10.3478,5.6817,16.25,5.6791,5.9034,15.71,5.9034a23.6587,23.6587,0,0,0,15.4248-5.3321q6.5376-5.3321,6.5381-12.5049,0-7.68-14.4092-21.1376l-6.9824-6.4747q-13.3953-12.4409-13.394-22.9145a24.89,24.89,0,0,1,9.5214-20.0586q9.5223-7.8706,24.2486-7.8711,7.8077,0,12.6318,2.38,4.8237,2.3818,4.8242,6.1894,0,3.7457-3.4277,8.6963-5.5224-10.6639-17.9639-10.664a18.7356,18.7356,0,0,0-13.0439,4.792,15.3293,15.3293,0,0,0-5.3013,11.8388q0,4.6978,1.7466,7.1724,1.7446,2.4756,10.8223,10.791l5.7129,5.2686Q332.2,452.9805,332.2,464.5322q0,13.4575-10.6641,22.3125t-26.851,8.8545q-10.8546,0-17.9327-5.0781t-7.0771-12.8223Q269.6753,472.5313,278.2446,466.1191Z" transform="translate(-105.6 -183)"/><path class="fa05e7f9-269f-4c65-bf7a-39e1caa45e1c" d="M368.08,441.3l-3.253,16.3135q-2.04,10.1572-2.041,14.4092,0,8.4434,16.377,8.4423,16.25,0,28.6279-5.7763-2.8564,9.5214-9.458,11.7431a91.0876,91.0876,0,0,1-13.9014,2.7608,114.8323,114.8323,0,0,1-15.2343,1.4287q-20.7568,0-20.7569-13.7744,0-3.6811,2.0313-14.1553L354.7246,441.3h-.9521a29.2988,29.2988,0,0,0-12.4414,2.793q3.4907-6.8555,5.7451-8.76,2.2514-1.9043,7.1406-1.9043h2.0947l6.2207-31.2934h-1.8408a35.6383,35.6383,0,0,0-21.7725,7.49q3.173-10.1557,8.6963-13.0762,4.3155-2.2208,26.5967-2.2217h18.916q17.9,0,29.0723-3.5547-5.0083,7.9351-8.9063,9.6485t-16.8925,1.7139H375.9258l-6.3145,31.2934h13.127q13.7622,0,21.9424-3.4912-4.314,8.0625-7.6758,9.7119t-15.794,1.65Z" transform="translate(-105.6 -183)"/><path class="fa05e7f9-269f-4c65-bf7a-39e1caa45e1c" d="M431.0293,459.2012l-1.2695,2.4121q-7.9981,14.918-7.9981,23.1055a7.4272,7.4272,0,0,0,1.8408,4.6972q-1.5234.5084-6.8554,2.4756a13.931,13.931,0,0,1-4.6973.8887q-4.4443,0-4.4434-4.253,0-8.8227,10.9815-26.914l1.9678-3.2373h-3.2373q-10.4108,0-16.1231,3.2373,2.9825-10.7271,16.06-10.7276l7.8711.19,1.7138-2.5391q9.9654-14.9795,30.4688-40.3071,6.9185-8.5693,10.3467-10.6641t13.2666-3.8086a134.1727,134.1727,0,0,0-1.8408,21.2647,240.1948,240.1948,0,0,0,6.03,52.8755q3.3,14.7275,10.0928,18.98-5.9677,5.9033-10.22,5.9033-10.03,0-15.4883-34.4043a194.7741,194.7741,0,0,1-21.1377,1.1426Zm4.57-7.49,12.8223.3174a170.9932,170.9932,0,0,0,20.122-.8887,294.0441,294.0441,0,0,1-2.92-36.9428l.0635-4.7608q-2.0947,2.6661-9.3945,11.5528-13.2042,16.1857-19.36,28.2466Z" transform="translate(-105.6 -183)"/></svg>