<?xml version="1.0" encoding="UTF-8" standalone="yes"?>
<!-- Created with sK1/UniConvertor (http://sk1project.org/) -->
<svg xmlns="http://www.w3.org/2000/svg" xmlns:xlink="http://www.w3.org/1999/xlink"
  width="595.276pt" height="841.89pt" viewBox="0 0 595.276 841.89"
  fill-rule="evenodd">
<g>
<g>
<path style="stroke:#67b83c; stroke-width:2.6844; fill:#67b83c" d="M 193.633 369.555L 284.77 369.555C 287.555 369.555 289.833 371.833 289.833 374.619L 289.833 465.756C 289.833 468.541 287.555 470.819 284.77 470.819L 193.633 470.819C 190.848 470.819 188.569 468.541 188.569 465.756L 188.569 374.619C 188.569 371.833 190.848 369.555 193.633 369.555z"/>
<path style="stroke:#67b83c; stroke-width:2.6841; fill:#ffffff" d="M 304.968 369.555L 396.105 369.555C 398.89 369.555 401.168 371.833 401.168 374.619L 401.168 465.756C 401.168 468.541 398.89 470.819 396.105 470.819L 304.968 470.819C 302.183 470.819 299.905 468.541 299.905 465.756L 299.905 374.619C 299.905 371.833 302.183 369.555 304.968 369.555z"/>
</g>
<g>
<path style="stroke:none; fill:#67b83c" d="M 377.132 396.44C 372.073 390.163 365.072 385.729 357.155 384.127L 357.155 424.559L 368.226 424.559L 368.226 441.607L 366.06 441.607L 366.06 426.725L 357.155 426.725L 357.155 456.247C 361.106 455.447 364.842 453.939 368.226 451.837C 371.6 449.74 374.61 447.062 377.132 443.934L 377.132 415.654L 366.06 415.654L 366.06 398.605L 368.226 398.605L 368.226 413.487L 377.132 413.487L 377.132 396.44z"/>
<path style="stroke:none; fill:#67b83c" d="M 354.989 456.611L 354.989 383.763C 352.044 383.367 349.029 383.367 346.084 383.763L 346.084 456.611C 349.029 457.007 352.044 457.007 354.989 456.611z"/>
<path style="stroke:none; fill:#67b83c" d="M 343.918 456.247L 343.918 384.127C 340.779 384.763 337.791 385.841 335.012 387.299L 335.012 441.607L 332.847 441.607L 332.847 388.538C 329.472 390.634 326.462 393.312 323.941 396.44L 323.941 443.934C 326.462 447.062 329.472 449.74 332.847 451.837C 336.23 453.939 339.966 455.447 343.918 456.247z"/>
</g>
<g>
<path style="stroke:none; fill:#ffffff" d="M 211.321 401.94C 211.321 402.564 211.228 403.124 211.044 403.613C 210.862 404.105 210.601 404.52 210.262 404.86C 209.922 405.199 209.509 405.457 209.02 405.632C 208.531 405.805 207.977 405.895 207.358 405.895C 206.79 405.895 206.271 405.81 205.804 405.648C 205.337 405.482 204.937 405.24 204.603 404.92C 204.269 404.599 204.011 404.197 203.832 403.714C 203.65 403.23 203.56 402.673 203.56 402.043L 203.56 395.651C 203.56 395.611 203.571 395.573 203.593 395.54C 203.614 395.508 203.65 395.483 203.704 395.464C 203.756 395.445 203.826 395.431 203.911 395.418C 203.995 395.404 204.106 395.396 204.245 395.396C 204.373 395.396 204.481 395.404 204.571 395.418C 204.661 395.431 204.731 395.445 204.783 395.464C 204.831 395.483 204.87 395.508 204.889 395.54C 204.91 395.573 204.921 395.611 204.921 395.651L 204.921 401.875C 204.921 402.353 204.981 402.768 205.095 403.124C 205.212 403.48 205.38 403.776 205.603 404.012C 205.823 404.249 206.086 404.425 206.396 404.545C 206.709 404.664 207.056 404.724 207.445 404.724C 207.841 404.724 208.197 404.667 208.507 404.55C 208.816 404.434 209.08 404.257 209.294 404.023C 209.509 403.79 209.675 403.502 209.789 403.157C 209.903 402.812 209.96 402.407 209.96 401.948L 209.96 395.651C 209.96 395.611 209.968 395.573 209.99 395.54C 210.011 395.508 210.05 395.483 210.101 395.464C 210.156 395.445 210.226 395.431 210.313 395.418C 210.4 395.404 210.512 395.396 210.642 395.396C 210.77 395.396 210.878 395.404 210.965 395.418C 211.052 395.431 211.123 395.445 211.171 395.464C 211.223 395.483 211.261 395.508 211.283 395.54C 211.307 395.573 211.321 395.611 211.321 395.651L 211.321 401.94L 211.321 401.94zM 220.051 405.545C 220.051 405.585 220.04 405.623 220.018 405.65C 219.997 405.68 219.964 405.705 219.915 405.726C 219.867 405.748 219.801 405.764 219.717 405.775C 219.63 405.786 219.524 405.792 219.399 405.792C 219.266 405.792 219.158 405.786 219.07 405.775C 218.986 405.764 218.921 405.748 218.872 405.726C 218.826 405.705 218.791 405.68 218.769 405.65C 218.747 405.623 218.736 405.585 218.736 405.545L 218.736 401.35C 218.736 400.94 218.706 400.611 218.641 400.364C 218.579 400.114 218.486 399.9 218.364 399.718C 218.242 399.538 218.085 399.4 217.889 399.305C 217.696 399.21 217.473 399.161 217.218 399.161C 216.889 399.161 216.561 399.278 216.232 399.511C 215.901 399.745 215.555 400.087 215.197 400.538L 215.197 405.545C 215.197 405.585 215.186 405.623 215.164 405.65C 215.143 405.68 215.107 405.705 215.061 405.726C 215.012 405.748 214.947 405.764 214.863 405.775C 214.776 405.786 214.667 405.792 214.535 405.792C 214.41 405.792 214.303 405.786 214.216 405.775C 214.132 405.764 214.064 405.748 214.016 405.726C 213.964 405.705 213.928 405.68 213.912 405.65C 213.893 405.623 213.882 405.585 213.882 405.545L 213.882 398.381C 213.882 398.338 213.891 398.303 213.907 398.273C 213.923 398.246 213.956 398.218 214.002 398.194C 214.051 398.17 214.111 398.156 214.187 398.148C 214.26 398.14 214.358 398.134 214.48 398.134C 214.597 398.134 214.694 398.14 214.771 398.148C 214.847 398.156 214.906 398.17 214.95 398.194C 214.991 398.218 215.023 398.246 215.042 398.273C 215.059 398.303 215.069 398.338 215.069 398.381L 215.069 399.329C 215.471 398.879 215.873 398.547 216.275 398.338C 216.674 398.129 217.079 398.023 217.487 398.023C 217.965 398.023 218.367 398.104 218.693 398.267C 219.019 398.428 219.285 398.645 219.486 398.914C 219.687 399.185 219.831 399.503 219.918 399.864C 220.008 400.228 220.051 400.666 220.051 401.174L 220.051 405.545L 220.051 405.545zM 223.759 405.545C 223.759 405.585 223.748 405.623 223.726 405.65C 223.705 405.68 223.669 405.705 223.623 405.726C 223.574 405.748 223.509 405.764 223.425 405.775C 223.338 405.786 223.23 405.792 223.096 405.792C 222.971 405.792 222.865 405.786 222.779 405.775C 222.694 405.764 222.626 405.748 222.577 405.726C 222.526 405.705 222.49 405.68 222.474 405.65C 222.455 405.623 222.444 405.585 222.444 405.545L 222.444 398.381C 222.444 398.343 222.455 398.311 222.474 398.278C 222.49 398.246 222.526 398.218 222.577 398.199C 222.626 398.178 222.694 398.161 222.779 398.15C 222.865 398.14 222.971 398.134 223.096 398.134C 223.23 398.134 223.338 398.14 223.425 398.15C 223.509 398.161 223.574 398.178 223.623 398.199C 223.669 398.218 223.705 398.246 223.726 398.278C 223.748 398.311 223.759 398.343 223.759 398.381L 223.759 405.545L 223.759 405.545zM 223.909 395.961C 223.909 396.271 223.851 396.48 223.735 396.591C 223.618 396.703 223.403 396.757 223.091 396.757C 222.781 396.757 222.572 396.703 222.458 396.594C 222.344 396.485 222.287 396.282 222.287 395.977C 222.287 395.671 222.344 395.461 222.461 395.35C 222.577 395.238 222.792 395.182 223.105 395.182C 223.414 395.182 223.623 395.236 223.737 395.345C 223.851 395.453 223.909 395.66 223.909 395.961L 223.909 395.961zM 232.057 398.365C 232.057 398.387 232.057 398.409 232.055 398.433C 232.052 398.458 232.046 398.482 232.041 398.509C 232.038 398.536 232.031 398.563 232.022 398.596C 232.014 398.629 232.006 398.664 231.995 398.699L 229.553 405.504C 229.531 405.563 229.501 405.61 229.469 405.648C 229.434 405.685 229.382 405.713 229.314 405.735C 229.243 405.756 229.156 405.77 229.05 405.778C 228.944 405.786 228.811 405.792 228.651 405.792C 228.494 405.792 228.36 405.786 228.255 405.775C 228.148 405.764 228.061 405.748 227.996 405.726C 227.928 405.705 227.877 405.677 227.842 405.639C 227.803 405.601 227.773 405.558 227.752 405.504L 225.318 398.699C 225.296 398.637 225.28 398.58 225.266 398.534C 225.253 398.485 225.245 398.449 225.242 398.425C 225.239 398.4 225.239 398.381 225.239 398.365C 225.239 398.324 225.25 398.286 225.269 398.254C 225.291 398.221 225.326 398.197 225.378 398.178C 225.427 398.159 225.495 398.148 225.576 398.142C 225.658 398.137 225.761 398.134 225.883 398.134C 226.038 398.134 226.16 398.14 226.253 398.148C 226.345 398.156 226.419 398.17 226.467 398.191C 226.519 398.213 226.554 398.237 226.579 398.27C 226.603 398.303 226.624 398.341 226.647 398.39L 228.667 404.295L 228.7 404.39L 228.724 404.295L 230.721 398.39C 230.732 398.341 230.751 398.303 230.778 398.27C 230.803 398.237 230.843 398.213 230.892 398.191C 230.944 398.17 231.011 398.156 231.098 398.148C 231.188 398.14 231.302 398.134 231.446 398.134C 231.568 398.134 231.669 398.137 231.748 398.142C 231.826 398.148 231.889 398.161 231.935 398.183C 231.981 398.205 232.011 398.229 232.031 398.259C 232.049 398.286 232.057 398.324 232.057 398.365L 232.057 398.365zM 239.497 401.652C 239.497 401.858 239.446 402.008 239.343 402.095C 239.24 402.181 239.122 402.225 238.99 402.225L 234.293 402.225C 234.293 402.624 234.334 402.98 234.412 403.301C 234.492 403.619 234.624 403.89 234.812 404.118C 234.996 404.347 235.238 404.523 235.534 404.645C 235.833 404.768 236.194 404.827 236.626 404.827C 236.966 404.827 237.268 404.8 237.533 404.743C 237.797 404.689 238.028 404.626 238.221 404.556C 238.413 404.487 238.574 404.425 238.699 404.371C 238.824 404.314 238.916 404.287 238.981 404.287C 239.017 404.287 239.052 404.295 239.079 404.314C 239.109 404.333 239.131 404.36 239.147 404.398C 239.163 404.436 239.177 404.487 239.185 404.553C 239.191 404.618 239.196 404.7 239.196 404.795C 239.196 404.865 239.193 404.925 239.188 404.974C 239.182 405.025 239.177 405.069 239.169 405.11C 239.161 405.151 239.147 405.186 239.128 405.219C 239.109 405.248 239.085 405.281 239.057 405.308C 239.027 405.338 238.941 405.387 238.796 405.452C 238.656 405.517 238.468 405.583 238.24 405.648C 238.012 405.71 237.748 405.767 237.449 405.819C 237.15 405.868 236.83 405.895 236.49 405.895C 235.901 405.895 235.385 405.81 234.942 405.648C 234.499 405.482 234.127 405.237 233.823 404.914C 233.522 404.591 233.294 404.186 233.139 403.697C 232.986 403.208 232.908 402.64 232.908 401.994C 232.908 401.38 232.989 400.826 233.147 400.334C 233.307 399.845 233.535 399.427 233.836 399.085C 234.135 398.743 234.497 398.482 234.923 398.297C 235.347 398.115 235.822 398.023 236.347 398.023C 236.909 398.023 237.387 398.112 237.783 398.295C 238.177 398.474 238.503 398.718 238.759 399.022C 239.014 399.326 239.199 399.685 239.318 400.095C 239.438 400.508 239.497 400.946 239.497 401.413L 239.497 401.652L 239.497 401.652zM 238.177 401.263C 238.194 400.573 238.042 400.03 237.718 399.639C 237.398 399.245 236.922 399.05 236.292 399.05C 235.966 399.05 235.684 399.112 235.439 399.235C 235.195 399.354 234.991 399.517 234.828 399.718C 234.663 399.919 234.535 400.155 234.445 400.421C 234.355 400.69 234.304 400.97 234.293 401.263L 238.177 401.263L 238.177 401.263zM 245.68 398.851C 245.68 398.968 245.677 399.066 245.672 399.145C 245.667 399.226 245.656 399.288 245.642 399.332C 245.626 399.378 245.604 399.411 245.582 399.435C 245.558 399.46 245.525 399.471 245.481 399.471C 245.438 399.471 245.387 399.46 245.327 399.435C 245.265 399.411 245.197 399.389 245.12 399.365C 245.042 399.34 244.957 399.319 244.862 399.297C 244.765 399.275 244.661 399.264 244.55 399.264C 244.417 399.264 244.29 399.291 244.162 399.346C 244.034 399.398 243.898 399.484 243.759 399.607C 243.618 399.729 243.471 399.892 243.317 400.093C 243.165 400.294 242.994 400.541 242.809 400.832L 242.809 405.545C 242.809 405.585 242.798 405.623 242.776 405.65C 242.754 405.68 242.719 405.705 242.673 405.726C 242.624 405.748 242.559 405.764 242.475 405.775C 242.388 405.786 242.279 405.792 242.146 405.792C 242.021 405.792 241.915 405.786 241.828 405.775C 241.744 405.764 241.676 405.748 241.628 405.726C 241.576 405.705 241.54 405.68 241.524 405.65C 241.505 405.623 241.494 405.585 241.494 405.545L 241.494 398.381C 241.494 398.338 241.503 398.303 241.518 398.273C 241.535 398.246 241.568 398.218 241.614 398.194C 241.663 398.17 241.722 398.156 241.798 398.148C 241.872 398.14 241.969 398.134 242.092 398.134C 242.208 398.134 242.306 398.14 242.382 398.148C 242.458 398.156 242.518 398.17 242.561 398.194C 242.603 398.218 242.635 398.246 242.654 398.273C 242.67 398.303 242.681 398.338 242.681 398.381L 242.681 399.424C 242.877 399.137 243.061 398.903 243.232 398.724C 243.406 398.544 243.569 398.4 243.724 398.297C 243.876 398.194 244.029 398.123 244.18 398.083C 244.333 398.045 244.485 398.023 244.637 398.023C 244.707 398.023 244.786 398.028 244.873 398.036C 244.96 398.045 245.053 398.058 245.148 398.08C 245.243 398.102 245.33 398.123 245.406 398.15C 245.484 398.178 245.539 398.205 245.569 398.229C 245.601 398.256 245.623 398.281 245.634 398.305C 245.644 398.33 245.653 398.36 245.661 398.398C 245.669 398.436 245.674 398.49 245.677 398.561C 245.68 398.631 245.68 398.729 245.68 398.851L 245.68 398.851zM 251.395 403.594C 251.395 403.961 251.327 404.287 251.191 404.572C 251.056 404.86 250.863 405.101 250.613 405.297C 250.365 405.493 250.067 405.642 249.721 405.743C 249.377 405.843 248.999 405.895 248.583 405.895C 248.331 405.895 248.087 405.873 247.856 405.835C 247.625 405.795 247.418 405.743 247.236 405.683C 247.052 405.623 246.896 405.558 246.769 405.493C 246.644 405.425 246.549 405.365 246.492 405.313C 246.432 405.259 246.392 405.186 246.364 405.091C 246.337 404.996 246.324 404.865 246.324 404.7C 246.324 404.599 246.329 404.515 246.34 404.444C 246.351 404.376 246.364 404.322 246.381 404.279C 246.397 404.235 246.419 404.205 246.449 404.186C 246.476 404.167 246.511 404.159 246.546 404.159C 246.606 404.159 246.693 404.194 246.807 404.268C 246.921 404.338 247.06 404.417 247.228 404.501C 247.394 404.585 247.592 404.664 247.82 404.735C 248.048 404.808 248.312 404.844 248.608 404.844C 248.831 404.844 249.032 404.819 249.214 404.773C 249.393 404.724 249.551 404.653 249.684 404.561C 249.814 404.469 249.917 404.349 249.988 404.208C 250.061 404.064 250.096 403.893 250.096 403.697C 250.096 403.496 250.045 403.325 249.942 403.189C 249.839 403.051 249.7 402.928 249.532 402.823C 249.36 402.717 249.171 402.622 248.958 402.54C 248.746 402.459 248.527 402.372 248.301 402.282C 248.076 402.19 247.856 402.089 247.641 401.975C 247.427 401.861 247.234 401.722 247.065 401.557C 246.894 401.391 246.758 401.196 246.655 400.967C 246.552 400.739 246.5 400.468 246.5 400.147C 246.5 399.867 246.555 399.598 246.663 399.34C 246.772 399.082 246.935 398.857 247.152 398.664C 247.369 398.471 247.641 398.316 247.967 398.199C 248.293 398.083 248.676 398.023 249.111 398.023C 249.301 398.023 249.491 398.039 249.684 398.072C 249.874 398.102 250.045 398.142 250.2 398.191C 250.355 398.237 250.485 398.289 250.593 398.346C 250.703 398.4 250.784 398.449 250.841 398.493C 250.895 398.536 250.933 398.572 250.952 398.604C 250.971 398.637 250.985 398.672 250.993 398.712C 251.001 398.751 251.007 398.8 251.015 398.86C 251.023 398.917 251.028 398.99 251.028 399.074C 251.028 399.163 251.023 399.243 251.015 399.308C 251.007 399.375 250.996 399.43 250.977 399.471C 250.958 399.514 250.936 399.544 250.909 399.563C 250.881 399.582 250.852 399.59 250.822 399.59C 250.773 399.59 250.705 399.563 250.613 399.503C 250.523 399.446 250.406 399.384 250.265 399.316C 250.121 399.25 249.953 399.188 249.757 399.128C 249.564 399.072 249.344 399.042 249.094 399.042C 248.871 399.042 248.676 399.066 248.505 399.118C 248.337 399.169 248.195 399.24 248.087 399.332C 247.978 399.424 247.896 399.536 247.84 399.663C 247.785 399.791 247.758 399.927 247.758 400.076C 247.758 400.283 247.809 400.457 247.916 400.598C 248.021 400.739 248.16 400.861 248.331 400.967C 248.499 401.073 248.692 401.168 248.909 401.255C 249.13 401.339 249.35 401.426 249.575 401.516C 249.801 401.609 250.023 401.709 250.243 401.82C 250.463 401.932 250.659 402.065 250.83 402.225C 250.999 402.385 251.134 402.575 251.238 402.798C 251.341 403.021 251.395 403.287 251.395 403.594L 251.395 403.594zM 254.587 405.545C 254.587 405.585 254.576 405.623 254.554 405.65C 254.532 405.68 254.497 405.705 254.451 405.726C 254.402 405.748 254.337 405.764 254.253 405.775C 254.166 405.786 254.057 405.792 253.924 405.792C 253.799 405.792 253.693 405.786 253.606 405.775C 253.522 405.764 253.454 405.748 253.405 405.726C 253.353 405.705 253.318 405.68 253.302 405.65C 253.283 405.623 253.272 405.585 253.272 405.545L 253.272 398.381C 253.272 398.343 253.283 398.311 253.302 398.278C 253.318 398.246 253.353 398.218 253.405 398.199C 253.454 398.178 253.522 398.161 253.606 398.15C 253.693 398.14 253.799 398.134 253.924 398.134C 254.057 398.134 254.166 398.14 254.253 398.15C 254.337 398.161 254.402 398.178 254.451 398.199C 254.497 398.218 254.532 398.246 254.554 398.278C 254.576 398.311 254.587 398.343 254.587 398.381L 254.587 405.545L 254.587 405.545zM 254.736 395.961C 254.736 396.271 254.679 396.48 254.562 396.591C 254.445 396.703 254.231 396.757 253.918 396.757C 253.609 396.757 253.4 396.703 253.286 396.594C 253.171 396.485 253.115 396.282 253.115 395.977C 253.115 395.671 253.171 395.461 253.288 395.35C 253.405 395.238 253.619 395.182 253.932 395.182C 254.241 395.182 254.451 395.236 254.565 395.345C 254.679 395.453 254.736 395.66 254.736 395.961L 254.736 395.961zM 263.148 405.545C 263.148 405.585 263.14 405.623 263.121 405.656C 263.102 405.685 263.07 405.713 263.026 405.732C 262.98 405.748 262.92 405.764 262.847 405.775C 262.771 405.786 262.681 405.792 262.575 405.792C 262.464 405.792 262.372 405.786 262.298 405.775C 262.222 405.764 262.163 405.748 262.114 405.732C 262.067 405.713 262.032 405.685 262.01 405.656C 261.989 405.623 261.977 405.585 261.977 405.545L 261.977 404.597C 261.603 405.007 261.212 405.324 260.804 405.552C 260.4 405.781 259.954 405.895 259.473 405.895C 258.946 405.895 258.498 405.792 258.126 405.588C 257.756 405.384 257.455 405.107 257.224 404.759C 256.993 404.412 256.825 404.004 256.719 403.534C 256.613 403.064 256.559 402.57 256.559 402.051C 256.559 401.434 256.627 400.878 256.757 400.383C 256.89 399.886 257.088 399.463 257.346 399.115C 257.607 398.764 257.93 398.496 258.314 398.305C 258.699 398.118 259.142 398.023 259.647 398.023C 260.065 398.023 260.448 398.115 260.796 398.297C 261.144 398.482 261.489 398.751 261.828 399.107L 261.828 394.942C 261.828 394.907 261.836 394.872 261.855 394.836C 261.875 394.801 261.91 394.774 261.964 394.758C 262.016 394.739 262.084 394.723 262.165 394.709C 262.247 394.695 262.352 394.69 262.48 394.69C 262.613 394.69 262.722 394.695 262.806 394.709C 262.89 394.723 262.958 394.739 263.004 394.758C 263.053 394.774 263.089 394.801 263.113 394.836C 263.138 394.872 263.148 394.907 263.148 394.942L 263.148 405.545L 263.148 405.545zM 261.828 400.506C 261.473 400.065 261.127 399.732 260.796 399.5C 260.465 399.27 260.12 399.153 259.758 399.153C 259.424 399.153 259.139 399.235 258.908 399.392C 258.675 399.552 258.484 399.761 258.338 400.022C 258.191 400.28 258.085 400.576 258.02 400.905C 257.952 401.234 257.919 401.568 257.919 401.907C 257.919 402.269 257.947 402.622 258.004 402.966C 258.058 403.309 258.156 403.616 258.294 403.885C 258.433 404.154 258.615 404.368 258.843 404.529C 259.071 404.692 259.359 404.773 259.701 404.773C 259.878 404.773 260.046 404.748 260.209 404.7C 260.37 404.653 260.535 404.572 260.706 404.461C 260.875 404.349 261.054 404.205 261.239 404.029C 261.423 403.849 261.622 403.632 261.828 403.371L 261.828 400.506L 261.828 400.506zM 270.972 405.552C 270.972 405.615 270.95 405.664 270.906 405.694C 270.865 405.726 270.806 405.751 270.733 405.767C 270.656 405.783 270.548 405.792 270.406 405.792C 270.268 405.792 270.157 405.783 270.075 405.767C 269.994 405.751 269.934 405.726 269.896 405.694C 269.858 405.664 269.841 405.615 269.841 405.552L 269.841 404.835C 269.526 405.169 269.179 405.43 268.793 405.615C 268.41 405.8 268.002 405.895 267.573 405.895C 267.196 405.895 266.853 405.846 266.55 405.745C 266.245 405.648 265.984 405.507 265.77 405.322C 265.555 405.134 265.387 404.906 265.267 404.637C 265.15 404.366 265.091 404.059 265.091 403.714C 265.091 403.309 265.172 402.961 265.335 402.662C 265.501 402.366 265.737 402.119 266.044 401.923C 266.351 401.725 266.728 401.579 267.174 401.481C 267.62 401.383 268.122 401.334 268.679 401.334L 269.665 401.334L 269.665 400.777C 269.665 400.5 269.635 400.256 269.578 400.044C 269.518 399.832 269.426 399.656 269.296 399.517C 269.165 399.375 268.997 399.27 268.79 399.196C 268.584 399.125 268.328 399.09 268.027 399.09C 267.701 399.09 267.413 399.128 267.155 399.205C 266.897 399.283 266.672 399.368 266.478 399.46C 266.283 399.552 266.123 399.636 265.992 399.715C 265.862 399.791 265.767 399.829 265.702 399.829C 265.661 399.829 265.623 399.819 265.59 399.799C 265.558 399.777 265.531 399.745 265.506 399.701C 265.485 399.661 265.465 399.607 265.455 399.538C 265.444 399.473 265.438 399.4 265.438 399.321C 265.438 399.188 265.449 399.082 265.468 399.006C 265.487 398.93 265.531 398.857 265.604 398.786C 265.675 398.718 265.797 398.637 265.974 398.544C 266.147 398.452 266.348 398.368 266.576 398.289C 266.805 398.213 267.055 398.15 267.326 398.099C 267.595 398.047 267.87 398.023 268.147 398.023C 268.66 398.023 269.097 398.083 269.459 398.199C 269.82 398.316 270.111 398.487 270.333 398.712C 270.556 398.938 270.719 399.218 270.819 399.552C 270.92 399.886 270.972 400.275 270.972 400.72L 270.972 405.552L 270.972 405.552zM 269.665 402.282L 268.543 402.282C 268.182 402.282 267.87 402.312 267.603 402.372C 267.34 402.434 267.12 402.524 266.943 402.644C 266.769 402.763 266.639 402.907 266.558 403.073C 266.476 403.241 266.435 403.431 266.435 403.648C 266.435 404.021 266.552 404.317 266.788 404.537C 267.025 404.757 267.356 404.868 267.78 404.868C 268.125 404.868 268.443 404.781 268.739 404.605C 269.032 404.431 269.342 404.161 269.665 403.8L 269.665 402.282L 269.665 402.282zM 279.517 405.545C 279.517 405.585 279.509 405.623 279.49 405.656C 279.471 405.685 279.438 405.713 279.395 405.732C 279.348 405.748 279.289 405.764 279.215 405.775C 279.139 405.786 279.05 405.792 278.944 405.792C 278.832 405.792 278.74 405.786 278.667 405.775C 278.591 405.764 278.531 405.748 278.482 405.732C 278.436 405.713 278.401 405.685 278.379 405.656C 278.357 405.623 278.346 405.585 278.346 405.545L 278.346 404.597C 277.972 405.007 277.58 405.324 277.173 405.552C 276.768 405.781 276.323 405.895 275.842 405.895C 275.315 405.895 274.866 405.792 274.495 405.588C 274.125 405.384 273.824 405.107 273.593 404.759C 273.362 404.412 273.194 404.004 273.087 403.534C 272.982 403.064 272.927 402.57 272.927 402.051C 272.927 401.434 272.995 400.878 273.126 400.383C 273.259 399.886 273.457 399.463 273.715 399.115C 273.976 398.764 274.299 398.496 274.682 398.305C 275.068 398.118 275.51 398.023 276.016 398.023C 276.434 398.023 276.817 398.115 277.165 398.297C 277.512 398.482 277.857 398.751 278.197 399.107L 278.197 394.942C 278.197 394.907 278.205 394.872 278.224 394.836C 278.243 394.801 278.278 394.774 278.333 394.758C 278.385 394.739 278.452 394.723 278.534 394.709C 278.615 394.695 278.721 394.69 278.849 394.69C 278.982 394.69 279.09 394.695 279.175 394.709C 279.259 394.723 279.327 394.739 279.373 394.758C 279.422 394.774 279.457 394.801 279.482 394.836C 279.506 394.872 279.517 394.907 279.517 394.942L 279.517 405.545L 279.517 405.545zM 278.197 400.506C 277.841 400.065 277.496 399.732 277.165 399.5C 276.833 399.27 276.488 399.153 276.127 399.153C 275.793 399.153 275.508 399.235 275.277 399.392C 275.043 399.552 274.853 399.761 274.706 400.022C 274.56 400.28 274.454 400.576 274.389 400.905C 274.321 401.234 274.288 401.568 274.288 401.907C 274.288 402.269 274.315 402.622 274.372 402.966C 274.427 403.309 274.524 403.616 274.663 403.885C 274.801 404.154 274.984 404.368 275.212 404.529C 275.44 404.692 275.728 404.773 276.07 404.773C 276.247 404.773 276.415 404.748 276.578 404.7C 276.738 404.653 276.904 404.572 277.075 404.461C 277.243 404.349 277.423 404.205 277.608 404.029C 277.792 403.849 277.99 403.632 278.197 403.371L 278.197 400.506L 278.197 400.506zM 200.694 425.431C 200.694 425.472 200.684 425.509 200.662 425.542C 200.64 425.575 200.605 425.599 200.551 425.618C 200.499 425.637 200.428 425.651 200.339 425.665C 200.252 425.678 200.143 425.686 200.01 425.686C 199.882 425.686 199.774 425.678 199.684 425.665C 199.594 425.651 199.521 425.637 199.469 425.618C 199.415 425.599 199.377 425.575 199.358 425.542C 199.337 425.509 199.326 425.472 199.326 425.431L 199.326 415.546C 199.326 415.505 199.337 415.467 199.361 415.435C 199.385 415.402 199.426 415.378 199.48 415.358C 199.538 415.34 199.608 415.326 199.695 415.312C 199.782 415.299 199.888 415.291 200.01 415.291C 200.143 415.291 200.252 415.299 200.339 415.312C 200.428 415.326 200.499 415.34 200.551 415.358C 200.605 415.378 200.64 415.402 200.662 415.435C 200.684 415.467 200.694 415.505 200.694 415.546L 200.694 425.431L 200.694 425.431zM 209.449 425.439C 209.449 425.48 209.438 425.518 209.417 425.545C 209.395 425.575 209.363 425.599 209.313 425.621C 209.265 425.643 209.2 425.659 209.115 425.67C 209.029 425.681 208.923 425.686 208.797 425.686C 208.664 425.686 208.556 425.681 208.469 425.67C 208.385 425.659 208.32 425.643 208.27 425.621C 208.225 425.599 208.189 425.575 208.167 425.545C 208.145 425.518 208.135 425.48 208.135 425.439L 208.135 421.245C 208.135 420.835 208.105 420.506 208.04 420.259C 207.977 420.009 207.885 419.794 207.763 419.612C 207.64 419.433 207.483 419.295 207.287 419.2C 207.094 419.105 206.872 419.056 206.616 419.056C 206.288 419.056 205.959 419.172 205.63 419.406C 205.299 419.64 204.954 419.982 204.595 420.433L 204.595 425.439C 204.595 425.48 204.585 425.518 204.563 425.545C 204.541 425.575 204.505 425.599 204.46 425.621C 204.411 425.643 204.345 425.659 204.261 425.67C 204.174 425.681 204.066 425.686 203.933 425.686C 203.808 425.686 203.701 425.681 203.615 425.67C 203.53 425.659 203.463 425.643 203.414 425.621C 203.362 425.599 203.327 425.575 203.31 425.545C 203.291 425.518 203.28 425.48 203.28 425.439L 203.28 418.276C 203.28 418.233 203.289 418.197 203.305 418.167C 203.322 418.14 203.354 418.113 203.4 418.088C 203.449 418.064 203.509 418.05 203.585 418.042C 203.658 418.034 203.756 418.029 203.878 418.029C 203.995 418.029 204.092 418.034 204.169 418.042C 204.245 418.05 204.305 418.064 204.348 418.088C 204.389 418.113 204.422 418.14 204.44 418.167C 204.457 418.197 204.467 418.233 204.467 418.276L 204.467 419.224C 204.87 418.773 205.272 418.442 205.674 418.233C 206.073 418.023 206.478 417.917 206.885 417.917C 207.363 417.917 207.765 417.999 208.091 418.162C 208.417 418.322 208.684 418.539 208.885 418.808C 209.085 419.08 209.229 419.398 209.316 419.759C 209.406 420.123 209.449 420.56 209.449 421.068L 209.449 425.439z"/>
<path style="stroke:none; fill:#ffffff" d="M 217.979 425.439C 217.979 425.48 217.971 425.518 217.952 425.55C 217.933 425.58 217.9 425.607 217.857 425.627C 217.81 425.643 217.75 425.659 217.677 425.67C 217.601 425.681 217.512 425.686 217.406 425.686C 217.294 425.686 217.202 425.681 217.128 425.67C 217.053 425.659 216.993 425.643 216.944 425.627C 216.898 425.607 216.862 425.58 216.84 425.55C 216.819 425.518 216.808 425.48 216.808 425.439L 216.808 424.491C 216.433 424.901 216.042 425.219 215.635 425.447C 215.23 425.675 214.785 425.79 214.303 425.79C 213.777 425.79 213.328 425.686 212.956 425.482C 212.587 425.279 212.285 425.002 212.055 424.654C 211.824 424.306 211.655 423.899 211.549 423.429C 211.443 422.959 211.389 422.465 211.389 421.946C 211.389 421.329 211.457 420.772 211.587 420.278C 211.721 419.781 211.919 419.357 212.177 419.009C 212.438 418.659 212.761 418.39 213.144 418.2C 213.529 418.012 213.972 417.917 214.477 417.917C 214.896 417.917 215.279 418.01 215.626 418.192C 215.974 418.376 216.319 418.645 216.659 419.001L 216.659 414.837C 216.659 414.802 216.667 414.766 216.686 414.731C 216.705 414.696 216.74 414.669 216.795 414.653C 216.846 414.633 216.914 414.617 216.995 414.603C 217.077 414.59 217.183 414.584 217.311 414.584C 217.444 414.584 217.552 414.59 217.637 414.603C 217.721 414.617 217.789 414.633 217.835 414.653C 217.884 414.669 217.919 414.696 217.943 414.731C 217.968 414.766 217.979 414.802 217.979 414.837L 217.979 425.439L 217.979 425.439zM 216.659 420.4C 216.303 419.96 215.958 419.626 215.626 419.395C 215.295 419.164 214.95 419.047 214.589 419.047C 214.255 419.047 213.969 419.129 213.739 419.286C 213.505 419.446 213.315 419.656 213.168 419.917C 213.022 420.175 212.916 420.471 212.85 420.799C 212.782 421.128 212.75 421.462 212.75 421.802C 212.75 422.163 212.777 422.516 212.834 422.861C 212.888 423.204 212.986 423.51 213.125 423.78C 213.263 424.048 213.445 424.263 213.674 424.423C 213.902 424.586 214.189 424.668 214.532 424.668C 214.708 424.668 214.877 424.643 215.04 424.594C 215.2 424.548 215.366 424.467 215.537 424.355C 215.705 424.244 215.885 424.1 216.069 423.923C 216.254 423.744 216.452 423.527 216.659 423.266L 216.659 420.4L 216.659 420.4zM 226.541 425.439C 226.541 425.48 226.533 425.518 226.514 425.545C 226.495 425.575 226.462 425.599 226.413 425.621C 226.367 425.643 226.305 425.659 226.226 425.67C 226.149 425.681 226.055 425.686 225.943 425.686C 225.821 425.686 225.723 425.681 225.645 425.67C 225.569 425.659 225.509 425.643 225.462 425.621C 225.416 425.599 225.386 425.575 225.37 425.545C 225.357 425.518 225.348 425.48 225.348 425.439L 225.348 424.491C 224.938 424.942 224.536 425.271 224.137 425.477C 223.74 425.686 223.336 425.79 222.928 425.79C 222.45 425.79 222.048 425.708 221.722 425.55C 221.396 425.39 221.133 425.176 220.932 424.901C 220.728 424.627 220.584 424.309 220.497 423.945C 220.41 423.584 220.367 423.141 220.367 422.622L 220.367 418.276C 220.367 418.233 220.375 418.197 220.394 418.167C 220.413 418.14 220.448 418.113 220.499 418.088C 220.554 418.064 220.622 418.05 220.709 418.042C 220.793 418.034 220.899 418.029 221.027 418.029C 221.154 418.029 221.26 418.034 221.344 418.042C 221.429 418.05 221.497 418.064 221.548 418.088C 221.597 418.113 221.632 418.14 221.654 418.167C 221.676 418.197 221.687 418.233 221.687 418.276L 221.687 422.446C 221.687 422.864 221.717 423.201 221.779 423.454C 221.839 423.706 221.932 423.92 222.056 424.097C 222.181 424.276 222.339 424.412 222.529 424.51C 222.722 424.61 222.945 424.659 223.2 424.659C 223.529 424.659 223.855 424.543 224.18 424.309C 224.509 424.075 224.854 423.733 225.221 423.282L 225.221 418.276C 225.221 418.233 225.229 418.197 225.248 418.167C 225.267 418.14 225.302 418.113 225.357 418.088C 225.408 418.064 225.476 418.05 225.558 418.042C 225.639 418.034 225.748 418.029 225.881 418.029C 226.009 418.029 226.114 418.034 226.199 418.042C 226.283 418.05 226.351 418.064 226.397 418.088C 226.446 418.113 226.481 418.14 226.505 418.167C 226.53 418.197 226.541 418.233 226.541 418.276L 226.541 425.439L 226.541 425.439zM 233.465 423.489C 233.465 423.855 233.397 424.181 233.261 424.467C 233.126 424.755 232.933 424.996 232.683 425.192C 232.435 425.387 232.137 425.537 231.792 425.637C 231.447 425.738 231.069 425.79 230.653 425.79C 230.401 425.79 230.156 425.768 229.926 425.73C 229.695 425.689 229.488 425.637 229.306 425.578C 229.121 425.518 228.967 425.453 228.839 425.387C 228.714 425.319 228.619 425.259 228.562 425.208C 228.502 425.154 228.461 425.081 228.434 424.985C 228.407 424.89 228.394 424.76 228.394 424.594C 228.394 424.494 228.399 424.409 228.41 424.339C 228.421 424.271 228.434 424.217 228.451 424.173C 228.467 424.13 228.489 424.1 228.519 424.081C 228.546 424.062 228.581 424.054 228.616 424.054C 228.676 424.054 228.763 424.089 228.877 424.162C 228.991 424.233 229.13 424.312 229.298 424.396C 229.464 424.48 229.662 424.559 229.89 424.63C 230.118 424.703 230.382 424.738 230.678 424.738C 230.901 424.738 231.102 424.714 231.284 424.668C 231.463 424.619 231.62 424.548 231.753 424.456C 231.884 424.363 231.987 424.244 232.058 424.103C 232.131 423.958 232.167 423.787 232.167 423.592C 232.167 423.391 232.115 423.22 232.012 423.084C 231.908 422.945 231.77 422.823 231.602 422.717C 231.43 422.611 231.24 422.516 231.028 422.434C 230.816 422.353 230.597 422.266 230.371 422.177C 230.146 422.084 229.926 421.983 229.711 421.87C 229.496 421.756 229.304 421.617 229.135 421.451C 228.964 421.286 228.828 421.09 228.725 420.862C 228.622 420.634 228.57 420.362 228.57 420.042C 228.57 419.762 228.624 419.493 228.733 419.235C 228.842 418.977 229.005 418.751 229.222 418.558C 229.439 418.366 229.711 418.211 230.037 418.094C 230.363 417.977 230.746 417.917 231.181 417.917C 231.371 417.917 231.561 417.934 231.753 417.967C 231.944 417.996 232.115 418.037 232.27 418.086C 232.424 418.132 232.555 418.183 232.663 418.241C 232.772 418.295 232.854 418.344 232.911 418.387C 232.965 418.431 233.003 418.466 233.022 418.499C 233.041 418.531 233.055 418.567 233.063 418.607C 233.071 418.645 233.077 418.694 233.084 418.754C 233.093 418.811 233.098 418.884 233.098 418.969C 233.098 419.058 233.093 419.137 233.084 419.202C 233.077 419.27 233.066 419.325 233.046 419.365C 233.028 419.409 233.006 419.439 232.979 419.458C 232.952 419.477 232.921 419.484 232.892 419.484C 232.843 419.484 232.775 419.458 232.683 419.398C 232.593 419.341 232.476 419.278 232.335 419.21C 232.191 419.145 232.023 419.083 231.827 419.023C 231.634 418.966 231.414 418.936 231.164 418.936C 230.941 418.936 230.746 418.96 230.575 419.012C 230.406 419.064 230.265 419.134 230.156 419.227C 230.048 419.319 229.966 419.431 229.909 419.558C 229.855 419.686 229.828 419.821 229.828 419.971C 229.828 420.178 229.88 420.351 229.985 420.493C 230.091 420.634 230.23 420.756 230.401 420.862C 230.569 420.968 230.762 421.063 230.979 421.15C 231.199 421.234 231.42 421.321 231.645 421.411C 231.87 421.503 232.093 421.604 232.313 421.715C 232.533 421.826 232.729 421.959 232.9 422.12C 233.068 422.28 233.204 422.47 233.307 422.693C 233.41 422.916 233.465 423.182 233.465 423.489L 233.465 423.489zM 238.884 424.912C 238.884 425.067 238.873 425.189 238.854 425.279C 238.832 425.368 238.8 425.436 238.756 425.477C 238.715 425.52 238.65 425.561 238.566 425.597C 238.482 425.635 238.384 425.665 238.275 425.689C 238.167 425.713 238.053 425.732 237.93 425.748C 237.808 425.765 237.686 425.773 237.564 425.773C 237.191 425.773 236.874 425.724 236.607 425.627C 236.344 425.526 236.127 425.379 235.956 425.181C 235.787 424.98 235.662 424.73 235.586 424.423C 235.51 424.119 235.472 423.76 235.472 423.344L 235.472 419.159L 234.467 419.159C 234.388 419.159 234.326 419.118 234.277 419.031C 234.228 418.947 234.206 418.808 234.206 418.618C 234.206 418.518 234.212 418.433 234.225 418.363C 234.239 418.295 234.255 418.238 234.277 418.192C 234.298 418.148 234.326 418.116 234.361 418.097C 234.396 418.078 234.434 418.07 234.475 418.07L 235.472 418.07L 235.472 416.366C 235.472 416.328 235.48 416.296 235.499 416.263C 235.518 416.231 235.551 416.203 235.602 416.179C 235.652 416.155 235.719 416.138 235.806 416.127C 235.89 416.117 235.996 416.111 236.124 416.111C 236.257 416.111 236.366 416.117 236.45 416.127C 236.534 416.138 236.602 416.155 236.648 416.179C 236.697 416.203 236.73 416.231 236.752 416.263C 236.773 416.296 236.784 416.328 236.784 416.366L 236.784 418.07L 238.623 418.07C 238.664 418.07 238.702 418.078 238.734 418.097C 238.764 418.116 238.794 418.148 238.816 418.192C 238.84 418.238 238.859 418.295 238.868 418.363C 238.878 418.433 238.884 418.518 238.884 418.618C 238.884 418.808 238.862 418.947 238.813 419.031C 238.764 419.118 238.702 419.159 238.623 419.159L 236.784 419.159L 236.784 423.155C 236.784 423.649 236.857 424.021 237.001 424.274C 237.148 424.524 237.409 424.651 237.786 424.651C 237.908 424.651 238.017 424.638 238.112 424.616C 238.207 424.592 238.294 424.564 238.368 424.54C 238.441 424.513 238.506 424.488 238.558 424.464C 238.612 424.439 238.658 424.429 238.702 424.429C 238.729 424.429 238.753 424.434 238.778 424.447C 238.803 424.461 238.819 424.486 238.832 424.524C 238.846 424.562 238.859 424.61 238.868 424.673C 238.878 424.738 238.884 424.817 238.884 424.912L 238.884 424.912zM 244.805 418.746C 244.805 418.863 244.803 418.96 244.797 419.039C 244.792 419.121 244.781 419.183 244.767 419.227C 244.751 419.273 244.729 419.306 244.707 419.33C 244.683 419.354 244.651 419.365 244.607 419.365C 244.564 419.365 244.512 419.354 244.452 419.33C 244.39 419.306 244.322 419.284 244.245 419.259C 244.167 419.235 244.083 419.213 243.988 419.191C 243.89 419.17 243.787 419.159 243.676 419.159C 243.542 419.159 243.415 419.186 243.287 419.24C 243.159 419.292 243.023 419.379 242.885 419.501C 242.744 419.623 242.597 419.786 242.442 419.987C 242.29 420.188 242.119 420.435 241.934 420.726L 241.934 425.439C 241.934 425.48 241.923 425.518 241.902 425.545C 241.88 425.575 241.844 425.599 241.798 425.621C 241.749 425.643 241.684 425.659 241.6 425.67C 241.513 425.681 241.405 425.686 241.271 425.686C 241.146 425.686 241.04 425.681 240.954 425.67C 240.869 425.659 240.801 425.643 240.753 425.621C 240.701 425.599 240.666 425.575 240.649 425.545C 240.63 425.518 240.619 425.48 240.619 425.439L 240.619 418.276C 240.619 418.233 240.628 418.197 240.644 418.167C 240.66 418.14 240.693 418.113 240.739 418.088C 240.788 418.064 240.848 418.05 240.924 418.042C 240.997 418.034 241.095 418.029 241.217 418.029C 241.333 418.029 241.431 418.034 241.508 418.042C 241.583 418.05 241.643 418.064 241.687 418.088C 241.728 418.113 241.76 418.14 241.779 418.167C 241.796 418.197 241.806 418.233 241.806 418.276L 241.806 419.319C 242.002 419.031 242.187 418.797 242.358 418.618C 242.532 418.439 242.694 418.295 242.85 418.192C 243.002 418.088 243.154 418.018 243.306 417.977C 243.458 417.939 243.61 417.917 243.762 417.917C 243.833 417.917 243.912 417.923 243.999 417.931C 244.085 417.939 244.178 417.953 244.273 417.974C 244.368 417.996 244.455 418.018 244.531 418.045C 244.609 418.072 244.664 418.099 244.694 418.124C 244.727 418.151 244.748 418.175 244.759 418.2C 244.77 418.224 244.778 418.255 244.786 418.292C 244.794 418.33 244.8 418.385 244.803 418.455C 244.805 418.526 244.805 418.624 244.805 418.746L 244.805 418.746zM 247.617 425.439C 247.617 425.48 247.606 425.518 247.584 425.545C 247.562 425.575 247.527 425.599 247.481 425.621C 247.432 425.643 247.367 425.659 247.283 425.67C 247.196 425.681 247.087 425.686 246.954 425.686C 246.829 425.686 246.723 425.681 246.636 425.67C 246.552 425.659 246.484 425.643 246.435 425.621C 246.383 425.599 246.348 425.575 246.332 425.545C 246.313 425.518 246.302 425.48 246.302 425.439L 246.302 418.276C 246.302 418.238 246.313 418.205 246.332 418.173C 246.348 418.14 246.383 418.113 246.435 418.094C 246.484 418.072 246.552 418.056 246.636 418.045C 246.723 418.034 246.829 418.029 246.954 418.029C 247.087 418.029 247.196 418.034 247.283 418.045C 247.367 418.056 247.432 418.072 247.481 418.094C 247.527 418.113 247.562 418.14 247.584 418.173C 247.606 418.205 247.617 418.238 247.617 418.276L 247.617 425.439L 247.617 425.439zM 247.766 415.856C 247.766 416.165 247.709 416.375 247.592 416.486C 247.476 416.597 247.261 416.652 246.948 416.652C 246.639 416.652 246.43 416.597 246.316 416.489C 246.201 416.38 246.145 416.176 246.145 415.872C 246.145 415.565 246.201 415.356 246.318 415.245C 246.435 415.133 246.65 415.076 246.962 415.076C 247.271 415.076 247.481 415.13 247.595 415.239C 247.709 415.348 247.766 415.554 247.766 415.856L 247.766 415.856zM 255.44 425.447C 255.44 425.509 255.418 425.559 255.375 425.588C 255.333 425.621 255.274 425.645 255.201 425.662C 255.125 425.678 255.016 425.686 254.875 425.686C 254.736 425.686 254.625 425.678 254.543 425.662C 254.462 425.645 254.402 425.621 254.364 425.588C 254.326 425.559 254.31 425.509 254.31 425.447L 254.31 424.73C 253.995 425.064 253.647 425.325 253.261 425.509C 252.878 425.694 252.471 425.79 252.042 425.79C 251.664 425.79 251.322 425.741 251.018 425.64C 250.713 425.542 250.453 425.401 250.238 425.216C 250.023 425.029 249.855 424.801 249.735 424.532C 249.618 424.26 249.559 423.953 249.559 423.608C 249.559 423.204 249.64 422.856 249.803 422.557C 249.969 422.261 250.205 422.014 250.512 421.818C 250.819 421.62 251.197 421.473 251.642 421.375C 252.088 421.278 252.59 421.229 253.147 421.229L 254.133 421.229L 254.133 420.672C 254.133 420.395 254.103 420.15 254.046 419.938C 253.986 419.727 253.894 419.55 253.764 419.411C 253.633 419.27 253.465 419.164 253.259 419.091C 253.052 419.02 252.796 418.985 252.495 418.985C 252.169 418.985 251.881 419.023 251.623 419.099C 251.365 419.178 251.14 419.262 250.947 419.354C 250.751 419.446 250.591 419.531 250.46 419.609C 250.33 419.686 250.235 419.724 250.17 419.724C 250.129 419.724 250.091 419.713 250.059 419.694C 250.026 419.672 249.999 419.64 249.974 419.596C 249.953 419.556 249.934 419.501 249.923 419.433C 249.912 419.368 249.906 419.295 249.906 419.216C 249.906 419.083 249.917 418.977 249.936 418.901C 249.955 418.825 249.999 418.751 250.072 418.681C 250.143 418.613 250.265 418.531 250.442 418.439C 250.616 418.346 250.816 418.262 251.044 418.183C 251.273 418.108 251.523 418.045 251.794 417.994C 252.064 417.942 252.338 417.917 252.615 417.917C 253.128 417.917 253.565 417.977 253.927 418.094C 254.288 418.211 254.579 418.382 254.801 418.607C 255.024 418.833 255.187 419.113 255.288 419.446C 255.388 419.781 255.44 420.169 255.44 420.615L 255.44 425.447L 255.44 425.447zM 254.133 422.177L 253.011 422.177C 252.65 422.177 252.338 422.206 252.071 422.266C 251.808 422.329 251.588 422.419 251.411 422.538C 251.238 422.657 251.107 422.802 251.026 422.967C 250.944 423.135 250.903 423.326 250.903 423.543C 250.903 423.915 251.02 424.211 251.257 424.431C 251.493 424.651 251.824 424.763 252.248 424.763C 252.593 424.763 252.911 424.676 253.207 424.499C 253.5 424.325 253.81 424.056 254.133 423.695L 254.133 422.177L 254.133 422.177zM 259.164 425.439C 259.164 425.48 259.153 425.518 259.131 425.545C 259.109 425.575 259.074 425.599 259.028 425.621C 258.979 425.643 258.914 425.659 258.829 425.67C 258.742 425.681 258.634 425.686 258.501 425.686C 258.376 425.686 258.27 425.681 258.183 425.67C 258.099 425.659 258.031 425.643 257.982 425.621C 257.93 425.599 257.895 425.575 257.879 425.545C 257.86 425.518 257.849 425.48 257.849 425.439L 257.849 414.807C 257.849 414.764 257.86 414.726 257.879 414.696C 257.895 414.663 257.93 414.636 257.982 414.614C 258.031 414.595 258.099 414.579 258.183 414.568C 258.27 414.557 258.376 414.552 258.501 414.552C 258.634 414.552 258.742 414.557 258.829 414.568C 258.914 414.579 258.979 414.595 259.028 414.614C 259.074 414.636 259.109 414.663 259.131 414.696C 259.153 414.726 259.164 414.764 259.164 414.807L 259.164 425.439L 259.164 425.439zM 271.409 425.439C 271.409 425.48 271.4 425.518 271.382 425.55C 271.362 425.58 271.33 425.607 271.287 425.627C 271.24 425.643 271.18 425.659 271.107 425.67C 271.031 425.681 270.941 425.686 270.836 425.686C 270.724 425.686 270.632 425.681 270.558 425.67C 270.483 425.659 270.423 425.643 270.374 425.627C 270.327 425.607 270.292 425.58 270.27 425.55C 270.249 425.518 270.238 425.48 270.238 425.439L 270.238 424.491C 269.863 424.901 269.472 425.219 269.064 425.447C 268.66 425.675 268.214 425.79 267.733 425.79C 267.207 425.79 266.758 425.686 266.386 425.482C 266.017 425.279 265.715 425.002 265.484 424.654C 265.253 424.306 265.085 423.899 264.979 423.429C 264.873 422.959 264.819 422.465 264.819 421.946C 264.819 421.329 264.887 420.772 265.017 420.278C 265.15 419.781 265.349 419.357 265.607 419.009C 265.867 418.659 266.19 418.39 266.574 418.2C 266.959 418.012 267.402 417.917 267.908 417.917C 268.326 417.917 268.708 418.01 269.056 418.192C 269.404 418.376 269.749 418.645 270.089 419.001L 270.089 414.837C 270.089 414.802 270.097 414.766 270.116 414.731C 270.135 414.696 270.17 414.669 270.224 414.653C 270.276 414.633 270.344 414.617 270.425 414.603C 270.507 414.59 270.613 414.584 270.74 414.584C 270.874 414.584 270.982 414.59 271.066 414.603C 271.151 414.617 271.219 414.633 271.264 414.653C 271.314 414.669 271.349 414.696 271.373 414.731C 271.398 414.766 271.409 414.802 271.409 414.837L 271.409 425.439L 271.409 425.439zM 270.089 420.4C 269.733 419.96 269.388 419.626 269.056 419.395C 268.725 419.164 268.38 419.047 268.019 419.047C 267.685 419.047 267.399 419.129 267.168 419.286C 266.935 419.446 266.745 419.656 266.598 419.917C 266.451 420.175 266.346 420.471 266.28 420.799C 266.212 421.128 266.18 421.462 266.18 421.802C 266.18 422.163 266.207 422.516 266.264 422.861C 266.318 423.204 266.416 423.51 266.555 423.78C 266.693 424.048 266.875 424.263 267.103 424.423C 267.332 424.586 267.62 424.668 267.962 424.668C 268.138 424.668 268.307 424.643 268.47 424.594C 268.63 424.548 268.796 424.467 268.966 424.355C 269.135 424.244 269.314 424.1 269.499 423.923C 269.684 423.744 269.882 423.527 270.089 423.266L 270.089 420.4L 270.089 420.4zM 279.946 421.546C 279.946 421.753 279.895 421.902 279.791 421.989C 279.688 422.076 279.571 422.12 279.438 422.12L 274.741 422.12C 274.741 422.519 274.783 422.875 274.861 423.195C 274.94 423.513 275.073 423.785 275.26 424.013C 275.445 424.241 275.687 424.418 275.983 424.54C 276.282 424.662 276.643 424.722 277.075 424.722C 277.415 424.722 277.716 424.695 277.982 424.638C 278.246 424.583 278.476 424.521 278.669 424.45C 278.862 424.382 279.023 424.32 279.148 424.266C 279.273 424.208 279.365 424.181 279.43 424.181C 279.465 424.181 279.501 424.189 279.528 424.208C 279.558 424.228 279.579 424.255 279.596 424.293C 279.612 424.331 279.626 424.382 279.634 424.447C 279.639 424.513 279.645 424.594 279.645 424.689C 279.645 424.76 279.642 424.82 279.636 424.868C 279.631 424.92 279.626 424.964 279.618 425.005C 279.609 425.045 279.596 425.081 279.577 425.113C 279.558 425.143 279.534 425.176 279.506 425.203C 279.476 425.233 279.389 425.281 279.246 425.347C 279.104 425.412 278.917 425.477 278.689 425.542C 278.46 425.605 278.197 425.662 277.898 425.713C 277.599 425.762 277.279 425.79 276.939 425.79C 276.35 425.79 275.834 425.705 275.391 425.542C 274.948 425.377 274.576 425.132 274.272 424.808C 273.97 424.486 273.742 424.081 273.587 423.592C 273.435 423.103 273.357 422.535 273.357 421.889C 273.357 421.275 273.438 420.721 273.595 420.229C 273.756 419.74 273.984 419.321 274.285 418.98C 274.585 418.637 274.946 418.376 275.372 418.192C 275.796 418.01 276.271 417.917 276.796 417.917C 277.358 417.917 277.836 418.007 278.232 418.189C 278.626 418.368 278.952 418.613 279.207 418.917C 279.463 419.221 279.648 419.58 279.767 419.99C 279.886 420.403 279.946 420.84 279.946 421.308L 279.946 421.546L 279.946 421.546zM 278.626 421.158C 278.643 420.468 278.49 419.925 278.167 419.534C 277.847 419.14 277.371 418.944 276.741 418.944C 276.415 418.944 276.133 419.007 275.888 419.129C 275.643 419.248 275.44 419.411 275.277 419.612C 275.111 419.814 274.984 420.05 274.894 420.316C 274.804 420.585 274.753 420.865 274.741 421.158L 278.626 421.158L 278.626 421.158zM 219.937 442.644C 219.937 443.125 219.847 443.554 219.671 443.932C 219.491 444.309 219.247 444.627 218.929 444.891C 218.614 445.154 218.245 445.352 217.815 445.483C 217.389 445.616 216.93 445.684 216.436 445.684C 216.09 445.684 215.77 445.654 215.476 445.594C 215.183 445.537 214.92 445.467 214.689 445.38C 214.458 445.296 214.265 445.209 214.108 445.119C 213.95 445.027 213.841 444.951 213.782 444.888C 213.719 444.823 213.676 444.741 213.646 444.644C 213.616 444.546 213.602 444.416 213.602 444.25C 213.602 444.133 213.608 444.038 213.619 443.959C 213.629 443.883 213.646 443.82 213.665 443.775C 213.687 443.725 213.714 443.693 213.747 443.674C 213.776 443.655 213.814 443.647 213.858 443.647C 213.931 443.647 214.037 443.69 214.17 443.78C 214.306 443.872 214.48 443.97 214.691 444.076C 214.906 444.182 215.161 444.283 215.461 444.375C 215.759 444.467 216.107 444.514 216.498 444.514C 216.797 444.514 217.068 444.472 217.316 444.394C 217.562 444.315 217.775 444.201 217.951 444.057C 218.13 443.91 218.266 443.731 218.361 443.519C 218.456 443.307 218.505 443.065 218.505 442.794C 218.505 442.503 218.437 442.253 218.304 442.047C 218.174 441.84 217.998 441.658 217.78 441.501C 217.562 441.343 217.316 441.202 217.036 441.072C 216.759 440.941 216.474 440.808 216.18 440.672C 215.889 440.539 215.604 440.387 215.33 440.224C 215.053 440.058 214.805 439.865 214.588 439.643C 214.371 439.42 214.195 439.159 214.059 438.858C 213.925 438.559 213.858 438.2 213.858 437.779C 213.858 437.35 213.937 436.967 214.091 436.63C 214.249 436.293 214.466 436.011 214.743 435.783C 215.023 435.555 215.354 435.381 215.74 435.262C 216.123 435.142 216.539 435.082 216.984 435.082C 217.212 435.082 217.443 435.104 217.674 435.142C 217.905 435.182 218.123 435.234 218.326 435.302C 218.53 435.367 218.712 435.443 218.87 435.525C 219.03 435.606 219.136 435.674 219.184 435.723C 219.236 435.775 219.269 435.813 219.285 435.843C 219.301 435.872 219.315 435.911 219.323 435.954C 219.334 436 219.342 436.055 219.347 436.117C 219.353 436.182 219.356 436.264 219.356 436.364C 219.356 436.459 219.353 436.543 219.345 436.619C 219.336 436.693 219.323 436.755 219.309 436.807C 219.293 436.856 219.269 436.894 219.241 436.918C 219.211 436.94 219.179 436.954 219.141 436.954C 219.084 436.954 218.991 436.916 218.867 436.842C 218.742 436.766 218.589 436.685 218.41 436.59C 218.228 436.497 218.016 436.413 217.769 436.337C 217.522 436.258 217.245 436.22 216.938 436.22C 216.65 436.22 216.4 436.258 216.188 436.337C 215.977 436.413 215.802 436.516 215.664 436.644C 215.525 436.769 215.422 436.921 215.354 437.098C 215.284 437.272 215.248 437.456 215.248 437.654C 215.248 437.94 215.316 438.187 215.449 438.393C 215.583 438.6 215.757 438.784 215.979 438.942C 216.199 439.102 216.449 439.249 216.729 439.379C 217.011 439.513 217.297 439.646 217.59 439.781C 217.88 439.917 218.169 440.067 218.448 440.227C 218.731 440.39 218.981 440.58 219.201 440.8C 219.421 441.02 219.6 441.281 219.733 441.579C 219.869 441.881 219.937 442.234 219.937 442.644L 219.937 442.644zM 227.141 445.342C 227.141 445.404 227.119 445.453 227.076 445.483C 227.035 445.515 226.975 445.54 226.902 445.556C 226.826 445.573 226.717 445.581 226.576 445.581C 226.437 445.581 226.326 445.573 226.244 445.556C 226.163 445.54 226.103 445.515 226.065 445.483C 226.027 445.453 226.011 445.404 226.011 445.342L 226.011 444.625C 225.696 444.959 225.348 445.219 224.962 445.404C 224.579 445.589 224.172 445.684 223.743 445.684C 223.365 445.684 223.023 445.635 222.719 445.535C 222.414 445.437 222.153 445.296 221.939 445.111C 221.724 444.923 221.556 444.695 221.436 444.426C 221.32 444.155 221.26 443.848 221.26 443.503C 221.26 443.098 221.341 442.75 221.504 442.452C 221.67 442.155 221.907 441.908 222.213 441.713C 222.52 441.514 222.898 441.368 223.343 441.27C 223.788 441.172 224.291 441.123 224.848 441.123L 225.834 441.123L 225.834 440.566C 225.834 440.29 225.805 440.045 225.747 439.833C 225.687 439.621 225.595 439.445 225.465 439.306C 225.334 439.165 225.166 439.059 224.96 438.985C 224.753 438.915 224.498 438.879 224.196 438.879C 223.87 438.879 223.582 438.917 223.324 438.994C 223.066 439.072 222.841 439.157 222.648 439.249C 222.452 439.341 222.292 439.426 222.161 439.504C 222.031 439.58 221.936 439.618 221.871 439.618C 221.83 439.618 221.792 439.608 221.76 439.589C 221.727 439.567 221.7 439.534 221.675 439.491C 221.654 439.45 221.635 439.396 221.624 439.328C 221.613 439.263 221.607 439.189 221.607 439.11C 221.607 438.977 221.619 438.871 221.637 438.795C 221.656 438.719 221.7 438.646 221.773 438.576C 221.844 438.507 221.966 438.426 222.143 438.333C 222.316 438.241 222.517 438.157 222.746 438.078C 222.974 438.002 223.224 437.94 223.495 437.888C 223.764 437.837 224.038 437.812 224.316 437.812C 224.829 437.812 225.266 437.872 225.628 437.989C 225.989 438.105 226.28 438.277 226.502 438.502C 226.725 438.727 226.888 439.007 226.988 439.341C 227.089 439.676 227.141 440.064 227.141 440.509L 227.141 445.342L 227.141 445.342zM 225.834 442.071L 224.712 442.071C 224.351 442.071 224.038 442.101 223.772 442.161C 223.509 442.223 223.289 442.313 223.112 442.433C 222.938 442.552 222.808 442.696 222.727 442.862C 222.645 443.03 222.604 443.22 222.604 443.437C 222.604 443.81 222.721 444.106 222.958 444.326C 223.194 444.546 223.525 444.657 223.949 444.657C 224.294 444.657 224.612 444.57 224.908 444.394C 225.201 444.22 225.511 443.951 225.834 443.59L 225.834 442.071z"/>
<path style="stroke:none; fill:#ffffff" d="M 235.719 445.334C 235.719 445.374 235.708 445.412 235.686 445.44C 235.665 445.469 235.632 445.494 235.583 445.515C 235.534 445.537 235.469 445.554 235.384 445.565C 235.298 445.575 235.192 445.581 235.067 445.581C 234.934 445.581 234.825 445.575 234.738 445.565C 234.654 445.554 234.589 445.537 234.54 445.515C 234.494 445.494 234.458 445.469 234.436 445.44C 234.415 445.412 234.404 445.374 234.404 445.334L 234.404 441.14C 234.404 440.729 234.374 440.401 234.309 440.153C 234.246 439.904 234.154 439.689 234.032 439.507C 233.91 439.328 233.752 439.189 233.557 439.094C 233.364 438.999 233.141 438.95 232.885 438.95C 232.557 438.95 232.228 439.067 231.9 439.301C 231.568 439.534 231.223 439.877 230.865 440.328L 230.865 445.334C 230.865 445.374 230.854 445.412 230.832 445.44C 230.81 445.469 230.775 445.494 230.729 445.515C 230.68 445.537 230.615 445.554 230.531 445.565C 230.444 445.575 230.335 445.581 230.202 445.581C 230.077 445.581 229.971 445.575 229.884 445.565C 229.8 445.554 229.732 445.537 229.683 445.515C 229.632 445.494 229.596 445.469 229.58 445.44C 229.561 445.412 229.55 445.374 229.55 445.334L 229.55 438.17C 229.55 438.127 229.558 438.092 229.574 438.062C 229.591 438.035 229.623 438.007 229.669 437.983C 229.719 437.959 229.778 437.945 229.854 437.937C 229.928 437.929 230.025 437.924 230.147 437.924C 230.264 437.924 230.362 437.929 230.438 437.937C 230.514 437.945 230.574 437.959 230.617 437.983C 230.658 438.007 230.691 438.035 230.71 438.062C 230.726 438.092 230.737 438.127 230.737 438.17L 230.737 439.118C 231.139 438.668 231.541 438.336 231.943 438.127C 232.342 437.918 232.747 437.812 233.155 437.812C 233.633 437.812 234.035 437.893 234.361 438.056C 234.687 438.217 234.953 438.434 235.154 438.703C 235.355 438.975 235.499 439.292 235.585 439.654C 235.675 440.018 235.719 440.455 235.719 440.963L 235.719 445.334L 235.719 445.334zM 241.684 444.807C 241.684 444.961 241.673 445.084 241.654 445.173C 241.632 445.263 241.6 445.331 241.556 445.372C 241.516 445.415 241.45 445.456 241.366 445.491C 241.282 445.529 241.184 445.559 241.075 445.584C 240.967 445.608 240.853 445.627 240.731 445.643C 240.608 445.66 240.486 445.668 240.364 445.668C 239.992 445.668 239.673 445.619 239.407 445.521C 239.144 445.421 238.927 445.274 238.756 445.076C 238.587 444.875 238.462 444.625 238.386 444.318C 238.31 444.013 238.272 443.655 238.272 443.239L 238.272 439.053L 237.267 439.053C 237.188 439.053 237.126 439.013 237.077 438.926C 237.028 438.842 237.006 438.703 237.006 438.513C 237.006 438.413 237.012 438.328 237.025 438.257C 237.039 438.19 237.055 438.132 237.077 438.087C 237.099 438.043 237.126 438.01 237.161 437.991C 237.196 437.972 237.234 437.964 237.275 437.964L 238.272 437.964L 238.272 436.261C 238.272 436.223 238.28 436.19 238.299 436.158C 238.319 436.125 238.351 436.098 238.402 436.074C 238.452 436.049 238.519 436.033 238.606 436.022C 238.691 436.011 238.796 436.006 238.924 436.006C 239.057 436.006 239.166 436.011 239.25 436.022C 239.334 436.033 239.402 436.049 239.448 436.074C 239.497 436.098 239.53 436.125 239.552 436.158C 239.573 436.19 239.584 436.223 239.584 436.261L 239.584 437.964L 241.423 437.964C 241.464 437.964 241.502 437.972 241.535 437.991C 241.564 438.01 241.594 438.043 241.616 438.087C 241.641 438.132 241.659 438.19 241.668 438.257C 241.678 438.328 241.684 438.413 241.684 438.513C 241.684 438.703 241.662 438.842 241.613 438.926C 241.564 439.013 241.502 439.053 241.423 439.053L 239.584 439.053L 239.584 443.049C 239.584 443.544 239.657 443.916 239.801 444.168C 239.948 444.418 240.209 444.546 240.586 444.546C 240.708 444.546 240.817 444.532 240.912 444.511C 241.007 444.486 241.094 444.459 241.168 444.434C 241.241 444.407 241.306 444.383 241.358 444.358C 241.412 444.334 241.458 444.323 241.502 444.323C 241.529 444.323 241.553 444.329 241.578 444.342C 241.602 444.356 241.619 444.38 241.632 444.418C 241.646 444.456 241.659 444.505 241.668 444.567C 241.678 444.633 241.684 444.712 241.684 444.807L 241.684 444.807zM 248.619 445.342C 248.619 445.404 248.597 445.453 248.554 445.483C 248.512 445.515 248.453 445.54 248.379 445.556C 248.304 445.573 248.195 445.581 248.054 445.581C 247.915 445.581 247.804 445.573 247.722 445.556C 247.641 445.54 247.581 445.515 247.543 445.483C 247.505 445.453 247.489 445.404 247.489 445.342L 247.489 444.625C 247.173 444.959 246.826 445.219 246.44 445.404C 246.057 445.589 245.65 445.684 245.22 445.684C 244.843 445.684 244.501 445.635 244.197 445.535C 243.892 445.437 243.631 445.296 243.417 445.111C 243.202 444.923 243.034 444.695 242.914 444.426C 242.797 444.155 242.738 443.848 242.738 443.503C 242.738 443.098 242.819 442.75 242.982 442.452C 243.148 442.155 243.384 441.908 243.691 441.713C 243.998 441.514 244.376 441.368 244.821 441.27C 245.267 441.172 245.769 441.123 246.326 441.123L 247.312 441.123L 247.312 440.566C 247.312 440.29 247.282 440.045 247.225 439.833C 247.165 439.621 247.073 439.445 246.943 439.306C 246.812 439.165 246.644 439.059 246.438 438.985C 246.231 438.915 245.975 438.879 245.674 438.879C 245.348 438.879 245.06 438.917 244.802 438.994C 244.544 439.072 244.318 439.157 244.126 439.249C 243.93 439.341 243.77 439.426 243.639 439.504C 243.509 439.58 243.414 439.618 243.349 439.618C 243.308 439.618 243.27 439.608 243.238 439.589C 243.205 439.567 243.178 439.534 243.153 439.491C 243.132 439.45 243.113 439.396 243.102 439.328C 243.091 439.263 243.085 439.189 243.085 439.11C 243.085 438.977 243.096 438.871 243.115 438.795C 243.134 438.719 243.178 438.646 243.251 438.576C 243.322 438.507 243.444 438.426 243.62 438.333C 243.794 438.241 243.995 438.157 244.223 438.078C 244.452 438.002 244.702 437.94 244.973 437.888C 245.242 437.837 245.517 437.812 245.794 437.812C 246.307 437.812 246.744 437.872 247.106 437.989C 247.467 438.105 247.757 438.277 247.98 438.502C 248.203 438.727 248.366 439.007 248.467 439.341C 248.567 439.676 248.619 440.064 248.619 440.509L 248.619 445.342L 248.619 445.342zM 247.312 442.071L 246.19 442.071C 245.829 442.071 245.517 442.101 245.25 442.161C 244.987 442.223 244.767 442.313 244.59 442.433C 244.416 442.552 244.286 442.696 244.205 442.862C 244.123 443.03 244.082 443.22 244.082 443.437C 244.082 443.81 244.199 444.106 244.436 444.326C 244.672 444.546 245.003 444.657 245.427 444.657C 245.772 444.657 246.09 444.57 246.386 444.394C 246.679 444.22 246.989 443.951 247.312 443.59L 247.312 442.071L 247.312 442.071zM 257.197 445.334C 257.197 445.374 257.186 445.412 257.164 445.44C 257.142 445.469 257.11 445.494 257.061 445.515C 257.012 445.537 256.947 445.554 256.863 445.565C 256.776 445.575 256.669 445.581 256.544 445.581C 256.412 445.581 256.303 445.575 256.216 445.565C 256.132 445.554 256.067 445.537 256.018 445.515C 255.972 445.494 255.936 445.469 255.915 445.44C 255.893 445.412 255.882 445.374 255.882 445.334L 255.882 441.14C 255.882 440.729 255.852 440.401 255.787 440.153C 255.724 439.904 255.632 439.689 255.51 439.507C 255.388 439.328 255.23 439.189 255.035 439.094C 254.842 438.999 254.619 438.95 254.363 438.95C 254.035 438.95 253.706 439.067 253.378 439.301C 253.046 439.534 252.701 439.877 252.342 440.328L 252.342 445.334C 252.342 445.374 252.332 445.412 252.31 445.44C 252.288 445.469 252.253 445.494 252.207 445.515C 252.158 445.537 252.092 445.554 252.008 445.565C 251.921 445.575 251.813 445.581 251.68 445.581C 251.555 445.581 251.449 445.575 251.362 445.565C 251.278 445.554 251.21 445.537 251.161 445.515C 251.109 445.494 251.074 445.469 251.057 445.44C 251.039 445.412 251.028 445.374 251.028 445.334L 251.028 438.17C 251.028 438.127 251.036 438.092 251.052 438.062C 251.069 438.035 251.101 438.007 251.147 437.983C 251.196 437.959 251.256 437.945 251.332 437.937C 251.405 437.929 251.503 437.924 251.626 437.924C 251.742 437.924 251.84 437.929 251.916 437.937C 251.992 437.945 252.052 437.959 252.095 437.983C 252.136 438.007 252.169 438.035 252.188 438.062C 252.204 438.092 252.215 438.127 252.215 438.17L 252.215 439.118C 252.617 438.668 253.019 438.336 253.421 438.127C 253.82 437.918 254.225 437.812 254.633 437.812C 255.111 437.812 255.513 437.893 255.839 438.056C 256.165 438.217 256.431 438.434 256.632 438.703C 256.832 438.975 256.977 439.292 257.064 439.654C 257.153 440.018 257.197 440.455 257.197 440.963L 257.197 445.334L 257.197 445.334zM 265.726 445.334C 265.726 445.374 265.718 445.412 265.699 445.445C 265.68 445.475 265.647 445.502 265.604 445.521C 265.557 445.537 265.498 445.554 265.425 445.565C 265.349 445.575 265.259 445.581 265.153 445.581C 265.041 445.581 264.949 445.575 264.876 445.565C 264.8 445.554 264.74 445.537 264.691 445.521C 264.645 445.502 264.61 445.475 264.588 445.445C 264.566 445.412 264.555 445.374 264.555 445.334L 264.555 444.386C 264.181 444.796 263.789 445.114 263.382 445.342C 262.977 445.57 262.532 445.684 262.051 445.684C 261.524 445.684 261.076 445.581 260.704 445.377C 260.334 445.173 260.033 444.896 259.802 444.549C 259.571 444.201 259.403 443.793 259.296 443.324C 259.19 442.854 259.137 442.359 259.137 441.84C 259.137 441.224 259.204 440.667 259.335 440.173C 259.468 439.676 259.666 439.252 259.924 438.904C 260.185 438.554 260.508 438.285 260.891 438.094C 261.277 437.907 261.719 437.812 262.225 437.812C 262.643 437.812 263.026 437.904 263.374 438.087C 263.721 438.271 264.066 438.54 264.406 438.896L 264.406 434.731C 264.406 434.696 264.414 434.661 264.433 434.626C 264.452 434.591 264.487 434.563 264.542 434.547C 264.594 434.528 264.661 434.512 264.743 434.498C 264.824 434.485 264.93 434.479 265.058 434.479C 265.191 434.479 265.3 434.485 265.384 434.498C 265.468 434.512 265.536 434.528 265.582 434.547C 265.631 434.563 265.666 434.591 265.69 434.626C 265.715 434.661 265.726 434.696 265.726 434.731L 265.726 445.334L 265.726 445.334zM 264.406 440.295C 264.05 439.855 263.705 439.521 263.374 439.29C 263.042 439.059 262.697 438.942 262.336 438.942C 262.002 438.942 261.717 439.024 261.486 439.181C 261.252 439.341 261.062 439.551 260.915 439.811C 260.769 440.069 260.663 440.365 260.598 440.694C 260.529 441.023 260.497 441.357 260.497 441.696C 260.497 442.058 260.524 442.411 260.581 442.755C 260.636 443.098 260.733 443.405 260.872 443.674C 261.01 443.943 261.193 444.157 261.421 444.318C 261.649 444.481 261.937 444.562 262.279 444.562C 262.456 444.562 262.624 444.538 262.787 444.489C 262.947 444.442 263.113 444.361 263.284 444.25C 263.452 444.139 263.632 443.995 263.816 443.818C 264.001 443.639 264.199 443.421 264.406 443.161L 264.406 440.295L 264.406 440.295zM 274.264 441.441C 274.264 441.647 274.212 441.797 274.109 441.884C 274.006 441.971 273.889 442.014 273.756 442.014L 269.059 442.014C 269.059 442.414 269.1 442.769 269.178 443.09C 269.258 443.408 269.391 443.679 269.578 443.907C 269.763 444.136 270.004 444.312 270.301 444.434C 270.599 444.557 270.961 444.616 271.392 444.616C 271.732 444.616 272.034 444.589 272.3 444.532C 272.563 444.478 272.794 444.416 272.987 444.345C 273.18 444.277 273.34 444.214 273.465 444.16C 273.59 444.103 273.682 444.076 273.748 444.076C 273.783 444.076 273.818 444.084 273.845 444.103C 273.875 444.122 273.897 444.149 273.913 444.188C 273.929 444.226 273.943 444.277 273.951 444.342C 273.957 444.407 273.962 444.489 273.962 444.584C 273.962 444.654 273.959 444.714 273.954 444.763C 273.949 444.815 273.943 444.858 273.935 444.899C 273.927 444.94 273.913 444.975 273.894 445.008C 273.875 445.038 273.851 445.07 273.824 445.097C 273.794 445.127 273.707 445.176 273.563 445.241C 273.422 445.306 273.234 445.372 273.006 445.437C 272.778 445.499 272.514 445.556 272.216 445.608C 271.917 445.657 271.596 445.684 271.257 445.684C 270.667 445.684 270.151 445.6 269.708 445.437C 269.266 445.271 268.893 445.027 268.589 444.703C 268.288 444.38 268.06 443.976 267.905 443.487C 267.752 442.998 267.674 442.43 267.674 441.783C 267.674 441.169 267.755 440.616 267.913 440.124C 268.073 439.635 268.301 439.216 268.603 438.874C 268.902 438.532 269.263 438.271 269.689 438.087C 270.113 437.904 270.589 437.812 271.113 437.812C 271.675 437.812 272.153 437.902 272.55 438.084C 272.944 438.263 273.27 438.507 273.525 438.812C 273.78 439.116 273.965 439.474 274.084 439.885C 274.204 440.298 274.264 440.735 274.264 441.202L 274.264 441.441L 274.264 441.441zM 272.944 441.053C 272.96 440.363 272.808 439.819 272.485 439.428C 272.164 439.034 271.688 438.839 271.059 438.839C 270.733 438.839 270.45 438.901 270.206 439.024C 269.961 439.143 269.757 439.306 269.594 439.507C 269.428 439.708 269.301 439.944 269.211 440.211C 269.121 440.479 269.07 440.759 269.059 441.053L 272.944 441.053L 272.944 441.053zM 280.446 438.641C 280.446 438.757 280.443 438.855 280.438 438.934C 280.433 439.015 280.422 439.078 280.408 439.121C 280.392 439.167 280.37 439.2 280.348 439.225C 280.324 439.249 280.292 439.26 280.248 439.26C 280.204 439.26 280.153 439.249 280.093 439.225C 280.031 439.2 279.963 439.178 279.886 439.154C 279.808 439.129 279.724 439.108 279.628 439.086C 279.531 439.064 279.427 439.053 279.316 439.053C 279.183 439.053 279.056 439.08 278.928 439.135C 278.8 439.187 278.664 439.273 278.526 439.396C 278.385 439.518 278.237 439.681 278.083 439.882C 277.931 440.083 277.76 440.33 277.575 440.621L 277.575 445.334C 277.575 445.374 277.564 445.412 277.542 445.44C 277.521 445.469 277.485 445.494 277.439 445.515C 277.39 445.537 277.325 445.554 277.241 445.565C 277.154 445.575 277.046 445.581 276.912 445.581C 276.787 445.581 276.681 445.575 276.595 445.565C 276.51 445.554 276.442 445.537 276.393 445.515C 276.342 445.494 276.306 445.469 276.29 445.44C 276.271 445.412 276.26 445.374 276.26 445.334L 276.26 438.17C 276.26 438.127 276.268 438.092 276.285 438.062C 276.301 438.035 276.334 438.007 276.38 437.983C 276.429 437.959 276.488 437.945 276.565 437.937C 276.638 437.929 276.736 437.924 276.858 437.924C 276.974 437.924 277.072 437.929 277.149 437.937C 277.224 437.945 277.284 437.959 277.328 437.983C 277.369 438.007 277.401 438.035 277.42 438.062C 277.437 438.092 277.447 438.127 277.447 438.17L 277.447 439.214C 277.643 438.926 277.828 438.692 277.999 438.513C 278.173 438.333 278.335 438.19 278.49 438.087C 278.643 437.983 278.795 437.912 278.947 437.872C 279.099 437.834 279.251 437.812 279.403 437.812C 279.474 437.812 279.552 437.817 279.639 437.826C 279.726 437.834 279.819 437.847 279.914 437.869C 280.009 437.891 280.096 437.912 280.172 437.94C 280.25 437.967 280.305 437.994 280.335 438.019C 280.367 438.045 280.389 438.07 280.4 438.094C 280.411 438.119 280.419 438.149 280.427 438.187C 280.435 438.225 280.441 438.279 280.443 438.35C 280.446 438.42 280.446 438.518 280.446 438.641z"/>
</g>
</g>
</svg>